<svg id="Layer_1" data-name="Layer 1" xmlns="http://www.w3.org/2000/svg" viewBox="0 0 914.7 234.04"><title>drips</title><path d="M914.7-.16l-.12,7.81c-23.83,0-51,12.45-64.66,32.88-7.76,11.61-10.41,25.12-9.1,38.75,1.75,18.24,5.21,36.3,7.54,54.5,1.08,8.48,2.15,17.14,1.56,25.61-.65,9.41-5.64,17-15,20.41-8.79,3.16-16.65.7-23.35-5.44-5.2-4.75-7.25-11.19-6.87-17.88.73-12.6,2.1-25.17,3.49-37.72,1.7-15.41,4.59-30.79,1.42-46.31C805.73,53.68,787,40.2,769,43.12c-10.89,1.77-17.45,8.93-22.05,18.25-1.94,3.92-3.19,8.16-5,12.14-4,8.83-10.26,12.75-19.78,11.44-6.8-.94-13.43-3.08-20.15-4.65-4.09-1-8.16-2.24-12.31-2.68-12.43-1.31-21.17,5.07-21.65,17.59-.45,11.51,1.42,23.11,2.24,34.67.53,7.39,1.45,14.79,1.39,22.18-.08,9.51-7.5,17.26-16.87,18.62C646,172,638.52,167,635.11,157.57s-1.92-19-.32-28.48c1.67-10,3.84-19.86,5.2-29.86s.68-19.58-5.6-28a25.74,25.74,0,0,0-43.8,3.36c-4.41,8.43-4.71,17.34-3.1,26.59,1.53,8.73,3.49,17.59,3.37,26.36-.14,10.08-8.05,17.16-16.58,17.08C566,144.5,557.8,137,557.6,127.29c-.18-9.16,1.55-18.36,2.52-27.54.42-4,2-8.17,1.33-12-.7-4-3.21-7.83-5.4-11.44-.49-.81-3.13-.91-4.5-.48a110.73,110.73,0,0,0-11.78,4.57c-17,7.66-32.81,6.49-48.15-4.74-5.25-3.84-11.82-7-18.17-8-14.61-2.16-24.62,6-25,20.78-.28,10.8,2,21.68,3.37,32.5,1.3,10,3.37,19.92,4.24,30,.34,4-1,8.43-2.69,12.15-3.24,7.11-9,11.41-17.15,11.17s-12.84-5.4-15.79-12.34c-3.8-8.95-2.43-18.21-1.14-27.43,1.22-8.67,3-17.3,3.57-26,.8-12.08-6-18.4-18.08-17.21-4.78.47-9.5,2.07-14.13,3.54a58,58,0,0,0-9.25,4.07c-13.65,7.16-26,4.35-37.72-4.56-4.42-3.38-8.67-7-13.38-10-21-13-44.14-2-47.42,22.49-2.39,17.9,1.53,35.26,4.61,52.68,1.73,9.8,3.73,19.55,5.19,29.38,1.58,10.66,1.14,21.23-3.39,31.26-4.44,9.83-11.12,14.15-20.86,13.7-9.91-.46-17.59-6.06-20.92-15.59-3.47-9.95-3.38-20.25-2.11-30.53,2.52-20.41,5.61-40.75,7.83-61.19,1.81-16.68-.13-33.16-7.83-48.25-10-19.59-30.91-27.55-50.44-20.17-14.25,5.39-22.18,15.78-21.78,30.79.36,13.75,3.13,27.43,4.08,41.19.59,8.49.79,17.26-.69,25.58-1.93,10.84-10,16.63-20,16.61-9.67,0-18-6.85-20.43-17.19-2.66-11.31-.35-22.46,1.62-33.6,2.09-11.78,4.72-23.52,5.79-35.4a64.87,64.87,0,0,0-2-22.93c-4.51-15.87-20.9-24.85-37-21.14a181.89,181.89,0,0,0-18.82,5.85c-8.77,3-16.55,1.8-23.46-4.55-7.57-6.95-15-14.14-22.87-20.69C29.39,14.33,28.51,8.37,0,8.37V-.16ZM822.78,173.32c-10.14-6.73-11.51-16.69-10.45-28.24C804.32,159.62,809,173.67,822.78,173.32Zm-678.45-38.4c-8.76,14.2-3.49,28,11.67,28.66C144.91,156.55,142.74,146.82,144.33,134.92Zm505.52,28.25c-8.72-5.54-10.71-13.2-9.31-23.2C633.57,152.07,637.69,162.3,649.85,163.17ZM434,167l-9.78-16.52c-2.43,2.91-2.09,8.3,1.66,13.34C428.09,166.85,430.79,169,434,167Z" transform="translate(0 0.16)" fill="#ffdce2"/></svg>