<svg id="Layer_1" data-name="Layer 1" xmlns="http://www.w3.org/2000/svg" viewBox="0 0 184.99 94.09"><title>empty-cart</title><path d="M145.49,94.09a2.39,2.39,0,0,0-.54-.25,1,1,0,0,1-.82-1.33,1.82,1.82,0,0,1,1.2-1c1.5-.13,3-.07,4.54-.08,2.6,0,5.2,0,7.79,0,.73,0,1.6-.16,1.93.8s-.32,1.38-.92,1.86Z" transform="translate(-0.54)" fill="#a63e51"/><path d="M167.78,94.09a4.92,4.92,0,0,1-1-.81,1.13,1.13,0,0,1,.73-1.76,5.45,5.45,0,0,1,2.09,0c.44.09,1.14.59,1.13.88,0,.51-.5,1-.79,1.49a1.2,1.2,0,0,1-.26.24Z" transform="translate(-0.54)" fill="#a63e51"/><path d="M68.13,73.43a6.48,6.48,0,0,1-1.31.07c-.62-.09-.9.11-.95.72l-1,10.83c-.06.64.17,1,.86,1h1Q92.86,86,119,86c1.73,0,1.79,0,1.65-1.65-.43-5.08-.91-10.15-1.37-15.23-.35-3.84-.68-7.69-1-11.54q-.72-8-1.46-16.06a1.19,1.19,0,0,0-1.38-1.17c-1.24,0-2.47,0-3.71,0-1.55,0-2.08-.54-2.31-2.12a23.33,23.33,0,0,0-.68-3.62,16.74,16.74,0,0,0-17-11.72A16.91,16.91,0,0,0,76.43,36.56c-.13.74-.2,1.5-.26,2.25a1.51,1.51,0,0,1-1.71,1.57c-1.27,0-2.55,0-3.83,0A1.68,1.68,0,0,0,68.75,42c-.35,3.72-.67,7.46-1,11.19,0,.35,0,.7,0,1l2,.51,0,.44A5.39,5.39,0,0,1,67.59,55,2.18,2.18,0,0,1,67,53.26c.25-3.7.6-7.39.94-11.07a2.52,2.52,0,0,1,2.8-2.62c1.11,0,2.24-.06,3.35,0,.92.05,1.27-.32,1.4-1.2a21.35,21.35,0,0,1,.84-4.31c2.49-6.82,7.33-10.86,14.59-11.8a17.34,17.34,0,0,1,19.29,16c.06.91.44,1.38,1.42,1.35,1.24,0,2.47,0,3.71,0a2,2,0,0,1,2.28,2c.65,7.46,1.29,14.92,2,22.37.59,6.59,1.23,13.16,1.84,19.74,0,.16,0,.32,0,.48.13,2.45,0,2.63-2.45,2.63H66.27c-2,0-2.24-.38-2-2.34.3-3.13.54-6.27.8-9.41,0-.43.12-.86.15-1.3.08-1,.59-1.32,1.54-1.08.45.11.92.16,1.38.24Z" transform="translate(-0.54)" fill="#a63e51"/><path d="M149.12,71c-4.64,0-9.27,0-13.9,0-1.53,0-2.35-1.15-1.64-2.31a2.49,2.49,0,0,1,1.54-.86,12.25,12.25,0,0,1,2.27,0h25.17a7.15,7.15,0,0,1,1.31.08,1.36,1.36,0,0,1,1.19,1.53A1.41,1.41,0,0,1,163.74,71c-1,.09-1.92,0-2.88.06H149.12Z" transform="translate(-0.54)" fill="#a63e51"/><path d="M36.89,67.52H50.65c1.61,0,2,.35,2,1.62a1.27,1.27,0,0,1-1.36,1.45c-1.55.08-3.1.17-4.65.18q-11.31,0-22.62,0a8.16,8.16,0,0,1-1.31-.08c-1.34-.24-1.69-.69-1.62-1.89s1-1.29,1.89-1.3c4.62,0,9.25,0,13.88,0Z" transform="translate(-0.54)" fill="#a63e51"/><path d="M92.81,40.38H81.31c-2,0-2.72-1-2-2.94a14.65,14.65,0,0,1,26.88-.35c.93,2.07,0,3.41-2.13,3.33C100.32,40.28,96.56,40.38,92.81,40.38Zm0-.82h11.38c1.58,0,1.95-.56,1.36-2a13.78,13.78,0,0,0-25.43.07c-.57,1.39-.23,1.91,1.3,1.91Z" transform="translate(-0.54)" fill="#a63e51"/><path d="M131.46,81.81c-2.12,0-4.24.07-6.35,0a2.43,2.43,0,0,1-1.68-1c-.52-.82.11-1.74,1.2-1.76,4-.09,8-.1,12-.14.43,0,.87.07,1.31.05,1,0,1.67.33,1.74,1.36s-.66,1.48-1.6,1.5c-2.2,0-4.39,0-6.58,0Z" transform="translate(-0.54)" fill="#a63e51"/><path d="M54.69,81.35H48.22c-.94,0-1.68-.2-1.69-1.36s.44-1.49,1.69-1.5q6.3,0,12.59,0c.92,0,1.94,0,2,1.35,0,1-.57,1.49-2,1.5C58.76,81.36,56.72,81.35,54.69,81.35Z" transform="translate(-0.54)" fill="#a63e51"/><path d="M34.25,91h6.22c.9,0,1.63.24,1.62,1.3s-.76,1.2-1.59,1.2l-12.45,0c-.89,0-1.63-.28-1.61-1.32S27.19,91,28,91Z" transform="translate(-0.54)" fill="#a63e51"/><path d="M94.23,71.89a11.22,11.22,0,0,1,5.77,2,1.52,1.52,0,0,1,.68,2.14c-.36.71-1.32.8-2.21.19a7.13,7.13,0,0,0-7.15-.76c-.83.34-1.66.43-2.13-.59-.38-.83,0-1.6,1.14-2S92.93,72.21,94.23,71.89Z" transform="translate(-0.54)" fill="#a63e51"/><path d="M21.92,84.23a3.6,3.6,0,0,1-3.68-3.82,3.72,3.72,0,0,1,3.82-3.72,3.8,3.8,0,0,1,3.73,3.86A3.72,3.72,0,0,1,21.92,84.23ZM25,80.45a3,3,0,0,0-3.09-3,3,3,0,1,0,3.09,3Z" transform="translate(-0.54)" fill="#a63e51"/><path d="M37.21,29.73c-3.5-.55-3.5-.55-3.47-1.17h3.47c0-1,0-1.93,0-2.82,0-.28.29-.53.44-.79.18.25.5.49.52.75.07.87,0,1.75,0,2.85,1,0,2,0,2.88,0,.26,0,.5.32.74.49-.24.18-.48.48-.73.5-.91.06-1.82,0-2.89,0,0,1,0,1.94,0,2.84,0,.27-.33.51-.5.77-.17-.26-.44-.51-.46-.78C37.18,31.54,37.21,30.66,37.21,29.73Z" transform="translate(-0.54)" fill="#a63e51"/><path d="M33.32,47.92a3.65,3.65,0,0,1-3.74,3.8A3.83,3.83,0,0,1,25.72,48a4,4,0,0,1,3.81-3.86A3.82,3.82,0,0,1,33.32,47.92Zm-.72.1a3.2,3.2,0,0,0-2.92-3.09,3.17,3.17,0,0,0-3.15,3,3.2,3.2,0,0,0,3,3.11A3.25,3.25,0,0,0,32.6,48Z" transform="translate(-0.54)" fill="#a63e51"/><path d="M142.78,34c.09.31.31.64.26.91-.17.73-.44,1.44-.68,2.16-.18.54-.1.89.55,1a11,11,0,0,1,2,.69c.2.1.29.45.43.68-.23.07-.48.23-.68.18a18,18,0,0,1-2.05-.64c-.57-.21-.89-.09-1.07.52-.27.9-.6,1.79-.91,2.68l-.41,0a2.63,2.63,0,0,1-.23-1,5.63,5.63,0,0,1,.49-1.59c.48-1,.1-1.45-.88-1.66a6.6,6.6,0,0,1-1.46-.49c-.27-.13-.43-.46-.63-.7l.22-.33c.59.17,1.18.32,1.76.5,1.67.53,1.67.54,2.21-1.09.19-.6.39-1.19.59-1.79Z" transform="translate(-0.54)" fill="#a63e51"/><path d="M64.35.14a21.13,21.13,0,0,1,.5,2.44c.08,1,.57,1.17,1.43.92A9.56,9.56,0,0,1,68,3.18c.21,0,.43.2.65.31-.15.19-.27.5-.46.56a20.92,20.92,0,0,1-2.09.43c-.65.11-.88.45-.73,1.09a13,13,0,0,1,.38,1.86,3.52,3.52,0,0,1-.29,1.1l-.45,0c-.18-.87-.39-1.75-.53-2.63S64.1,4.79,63.31,5a7.51,7.51,0,0,1-1.75.33c-.27,0-.56-.22-.84-.34.2-.2.38-.5.62-.57a13.13,13.13,0,0,1,1.87-.36c.73-.1.94-.44.74-1.15a9.67,9.67,0,0,1-.36-2,2.68,2.68,0,0,1,.33-1Z" transform="translate(-0.54)" fill="#a63e51"/><path d="M70.75,64.14a26.89,26.89,0,0,1-.62,2.71,2.4,2.4,0,0,1-4.4.13,7.6,7.6,0,0,1,0-5.7,2.15,2.15,0,0,1,2.21-1.34,2.2,2.2,0,0,1,2.16,1.43A25.42,25.42,0,0,1,70.75,64.14Zm-.83,0c-.13-.82-.19-1.61-.38-2.37a1.59,1.59,0,0,0-1.62-1.31,1.6,1.6,0,0,0-1.67,1.25,7.14,7.14,0,0,0,.07,4.89,2.47,2.47,0,0,0,1.55,1.17c.85.22,1.44-.4,1.65-1.2A22.37,22.37,0,0,0,69.92,64.15Z" transform="translate(-0.54)" fill="#a63e51"/><path d="M55.11,39.43l-4.69-7.61h8.32Zm2.7-7H51.48l3.57,5.79Z" transform="translate(-0.54)" fill="#a63e51"/><path d="M146.37,81.78c-.44,0-1,.16-1.29,0a2.57,2.57,0,0,1-1.15-1.25,1.06,1.06,0,0,1,1-1.47,17.85,17.85,0,0,1,2.83-.09A1.32,1.32,0,0,1,149,80.56c-.08.93-.73,1.14-1.48,1.23a11.78,11.78,0,0,1-1.19,0Z" transform="translate(-0.54)" fill="#a63e51"/><path d="M112.87,12.15l-7.32,3.65V7.28Zm-1.13-.07L106.05,8.3v6.62Z" transform="translate(-0.54)" fill="#a63e51"/><path d="M39.64,81.43c-.57,0-1.14.08-1.49-.15s-1-.86-1-1.31a1.73,1.73,0,0,1,1-1.32,12.6,12.6,0,0,1,2.95-.07c.87,0,1.19.62,1.18,1.35s-.3,1.33-1.17,1.4Z" transform="translate(-0.54)" fill="#a63e51"/><path d="M3.21,70.76a13.36,13.36,0,0,1-1.55,0A1.16,1.16,0,0,1,.54,69.46a1.06,1.06,0,0,1,1.18-1.19c1,0,2.05,0,3.07,0,.78,0,1.14.47,1.12,1.25a1.16,1.16,0,0,1-1.26,1.27c-.48,0-1,0-1.44,0Z" transform="translate(-0.54)" fill="#a63e51"/><path d="M182.78,68.51c.49,0,1,.14,1.6.17.87,0,1.18.51,1.15,1.32s-.46,1.11-1.22,1.13-1.59.09-2.39.12-1.52-.08-1.65-1.12.48-1.42,1.37-1.53C182,68.56,182.36,68.55,182.78,68.51Z" transform="translate(-0.54)" fill="#a63e51"/><path d="M81,17.62a2.34,2.34,0,0,1-2.43-2.49,2.41,2.41,0,1,1,4.82.07A2.33,2.33,0,0,1,81,17.62ZM81,16.81a1.71,1.71,0,0,0,1.73-1.6,1.66,1.66,0,0,0-1.64-1.68,1.69,1.69,0,0,0-1.74,1.59A1.71,1.71,0,0,0,81,16.81Z" transform="translate(-0.54)" fill="#a63e51"/><path d="M119.66,13.81a2.3,2.3,0,0,1-2.46-2.46,2.39,2.39,0,0,1,2.41-2.44,2.55,2.55,0,0,1,2.53,2.51A2.46,2.46,0,0,1,119.66,13.81Zm1.67-2.4a1.75,1.75,0,0,0-1.67-1.69,1.79,1.79,0,0,0-1.74,1.64A1.75,1.75,0,0,0,119.6,13,1.71,1.71,0,0,0,121.33,11.41Z" transform="translate(-0.54)" fill="#a63e51"/><path d="M172.87,67.81a1.6,1.6,0,0,1,1.79,1.64c0,1-.72,1.66-1.91,1.65a1.54,1.54,0,0,1-1.63-1.77A1.52,1.52,0,0,1,172.87,67.81Z" transform="translate(-0.54)" fill="#a63e51"/><path d="M13.28,67.48c1.18,0,1.75.52,1.74,1.61a1.64,1.64,0,0,1-1.63,1.68,1.69,1.69,0,0,1-1.87-1.7C11.52,68,12.06,67.48,13.28,67.48Z" transform="translate(-0.54)" fill="#a63e51"/><path d="M17.42,90.69c.74.39,1.48.57,1.84,1a1.77,1.77,0,0,1-.32,1.49,11.3,11.3,0,0,1-3.18,0c-.19,0-.51-1.2-.32-1.39A7.88,7.88,0,0,1,17.42,90.69Z" transform="translate(-0.54)" fill="#a63e51"/><path d="M84.92,67.22c-.68,0-1.21-.49-1.2-1.46a1.28,1.28,0,0,1,1.43-1.38,1.43,1.43,0,0,1,1.52,1.46C86.65,66.63,86,67.21,84.92,67.22Z" transform="translate(-0.54)" fill="#a63e51"/><path d="M104.34,65.76c-.1.81-.42,1.43-1.39,1.46a1.32,1.32,0,0,1-1.52-1.42,1.29,1.29,0,0,1,1.41-1.42C103.77,64.34,104.22,64.87,104.34,65.76Z" transform="translate(-0.54)" fill="#a63e51"/><path d="M59.71,69.08c-.66-1-1.3-1.62-.76-2.61C59.42,67.18,60.24,67.77,59.71,69.08Z" transform="translate(-0.54)" fill="#a63e51"/><path d="M77,61.42c-1.29-.36-1.3-1.22-1.56-1.89,0-.08.17-.36.24-.35s.51.1.58.24C76.47,60,76.65,60.56,77,61.42Z" transform="translate(-0.54)" fill="#a63e51"/><path d="M74.21,57.6,71.9,56.15C73,55.52,73.9,56.09,74.21,57.6Z" transform="translate(-0.54)" fill="#a63e51"/><path d="M72.75,71.62A2.27,2.27,0,0,1,70.26,73C70.88,71.9,71.73,71.83,72.75,71.62Z" transform="translate(-0.54)" fill="#a63e51"/><path d="M74.24,70c.36-.53.71-1.07,1.11-1.58.07-.09.36-.09.52,0a.46.46,0,0,1,.13.4c-.4.56-.84,1.09-1.26,1.63Z" transform="translate(-0.54)" fill="#a63e51"/><path d="M61,57.68c0,.11.08.27,0,.33-.41.54-.85,1.06-1.27,1.58a3.79,3.79,0,0,1-.38-.32c.42-.63.87-1.25,1.31-1.87Z" transform="translate(-0.54)" fill="#a63e51"/><path d="M77.3,63.81l-.19,2.4a1.63,1.63,0,0,1-.21-2.42Z" transform="translate(-0.54)" fill="#a63e51"/><path d="M62.68,55.8l2.12-.94.25.51-2.08,1Z" transform="translate(-0.54)" fill="#a63e51"/><path d="M58.11,64l.21-2.14.47,0V64Z" transform="translate(-0.54)" fill="#a63e51"/><path d="M61.65,70.42l1.87,1.48-.26.31a2.15,2.15,0,0,1-1.83-1.53Z" transform="translate(-0.54)" fill="#a63e51"/></svg>