<?xml version="1.0" encoding="utf-8"?>
<!-- Generator: Adobe Illustrator 23.1.0, SVG Export Plug-In . SVG Version: 6.00 Build 0)  -->
<svg version="1.1" id="Layer_1" xmlns="http://www.w3.org/2000/svg" xmlns:xlink="http://www.w3.org/1999/xlink" x="0px" y="0px"
	 viewBox="0 0 146.5 146.5" style="enable-background:new 0 0 146.5 146.5;" xml:space="preserve">
<style type="text/css">
	.st0{fill:#102195;}
	.st1{fill:#FFFFFF;}
</style>
<path class="st0" d="M146.5,73.3c0,40.5-32.8,73.3-73.3,73.3C32.8,146.5,0,113.7,0,73.3C0,32.8,32.8,0,73.3,0
	C113.7,0,146.5,32.8,146.5,73.3z"/>
<path class="st1" d="M60.3,117.8V68.7h-9.1V53.8h9.1v-3.7c0-5.4,0.6-9.4,1.7-12.1c1.2-2.8,3.4-5,6.6-6.8c3.1-1.7,7.1-2.5,11.8-2.5
	c4.8,0,9.5,0.7,14,2.2l0.8,0.3l-2.6,13.4l-1-0.2c-2.5-0.6-5-0.9-7.3-0.9c-2.1,0-3.5,0.5-4.4,1.3c-0.9,1-1.3,2.9-1.3,5.7v3.4H91v14.9
	H78.7v49.1L60.3,117.8L60.3,117.8z"/>
</svg>
