<?xml version="1.0" encoding="utf-8"?>
<!-- Generator: Adobe Illustrator 23.1.0, SVG Export Plug-In . SVG Version: 6.00 Build 0)  -->
<svg version="1.1" id="Layer_1" xmlns="http://www.w3.org/2000/svg" xmlns:xlink="http://www.w3.org/1999/xlink" x="0px" y="0px"
	 viewBox="0 0 146.5 146.5" style="enable-background:new 0 0 146.5 146.5;" xml:space="preserve">
<style type="text/css">
	.st0{fill:url(#SVGID_1_);}
	.st1{filter:url(#Adobe_OpacityMaskFilter);}
	.st2{filter:url(#Adobe_OpacityMaskFilter_1_);}
	.st3{mask:url(#SVGID_2_);fill:url(#SVGID_3_);}
	.st4{opacity:0.5;fill:url(#SVGID_4_);}
	.st5{fill:#FFFFFF;}
</style>
<linearGradient id="SVGID_1_" gradientUnits="userSpaceOnUse" x1="26.7014" y1="18.7757" x2="120.7017" y2="128.7759">
	<stop  offset="0" style="stop-color:#FEC053"/>
	<stop  offset="3.809266e-02" style="stop-color:#FDB652"/>
	<stop  offset="0.104" style="stop-color:#FB994E"/>
	<stop  offset="0.1897" style="stop-color:#F86C48"/>
	<stop  offset="0.2911" style="stop-color:#F32D40"/>
	<stop  offset="0.3111" style="stop-color:#F2203E"/>
	<stop  offset="0.4778" style="stop-color:#F2203E"/>
	<stop  offset="0.5456" style="stop-color:#E82250"/>
	<stop  offset="0.6805" style="stop-color:#CE257E"/>
	<stop  offset="0.7903" style="stop-color:#B729A8"/>
	<stop  offset="0.8334" style="stop-color:#A52DB0"/>
	<stop  offset="0.9194" style="stop-color:#7739C6"/>
	<stop  offset="0.9785" style="stop-color:#5342D6"/>
</linearGradient>
<path class="st0" d="M146.5,73.3c0,40.5-32.8,73.3-73.3,73.3C32.8,146.5,0,113.7,0,73.3C0,32.8,32.8,0,73.3,0
	C113.7,0,146.5,32.8,146.5,73.3z"/>
<defs>
	<filter id="Adobe_OpacityMaskFilter" filterUnits="userSpaceOnUse" x="7" y="7.2" width="77.2" height="123.6">
		<feFlood  style="flood-color:white;flood-opacity:1" result="back"/>
		<feBlend  in="SourceGraphic" in2="back" mode="normal"/>
	</filter>
</defs>
<mask maskUnits="userSpaceOnUse" x="7" y="7.2" width="77.2" height="123.6" id="SVGID_2_">
	<g class="st1">
		<defs>
			<filter id="Adobe_OpacityMaskFilter_1_" filterUnits="userSpaceOnUse" x="7" y="7.2" width="77.2" height="123.6">
				<feFlood  style="flood-color:white;flood-opacity:1" result="back"/>
				<feBlend  in="SourceGraphic" in2="back" mode="normal"/>
			</filter>
		</defs>
		<mask maskUnits="userSpaceOnUse" x="7" y="7.2" width="77.2" height="123.6" id="SVGID_2_">
			<g class="st2">
			</g>
		</mask>
		
			<radialGradient id="SVGID_3_" cx="277.8007" cy="-540.7185" r="90.0679" gradientTransform="matrix(0.1589 -0.9873 0.9873 0.1589 481.4193 421.9169)" gradientUnits="userSpaceOnUse">
			<stop  offset="0" style="stop-color:#FFFFFF"/>
			<stop  offset="1" style="stop-color:#808080"/>
		</radialGradient>
		<path class="st3" d="M64.4,7.4c20.6,3.3,22.3,37.8,17.8,66c-4.5,28.2-17,60.4-37.6,57.1C24,127.2,3.1,89.7,7.6,61.4
			C12.2,33.2,43.8,4.1,64.4,7.4z"/>
	</g>
</mask>
<linearGradient id="SVGID_4_" gradientUnits="userSpaceOnUse" x1="218.2708" y1="-487.2964" x2="342.9578" y2="-487.2964" gradientTransform="matrix(0.1589 -0.9873 0.9873 0.1589 481.4193 421.9169)">
	<stop  offset="0" style="stop-color:#FEC053"/>
	<stop  offset="0.3111" style="stop-color:#F2203E"/>
	<stop  offset="0.4778" style="stop-color:#F2203E"/>
	<stop  offset="0.7238" style="stop-color:#B729A8"/>
	<stop  offset="0.9785" style="stop-color:#5342D6"/>
</linearGradient>
<path class="st4" d="M64.4,7.4c20.6,3.3,22.3,37.8,17.8,66c-4.5,28.2-17,60.4-37.6,57.1C24,127.2,3.1,89.7,7.6,61.4
	C12.2,33.2,43.8,4.1,64.4,7.4z"/>
<g>
	<path class="st5" d="M54.9,116.1c-13.5,0-24.4-11-24.4-24.4V54.9c0-13.5,11-24.4,24.4-24.4h36.8c13.5,0,24.4,11,24.4,24.4v36.8
		c0,13.5-11,24.4-24.4,24.4H54.9z M54.9,38C45.6,38,38,45.6,38,54.9v36.8c0,9.3,7.6,16.9,16.9,16.9h36.8c9.3,0,16.9-7.6,16.9-16.9
		V54.9c0-9.3-7.6-16.9-16.9-16.9H54.9z"/>
	<path class="st5" d="M73.3,95.2c-12.1,0-22-9.9-22-22s9.9-22,22-22c12.1,0,22,9.9,22,22S85.4,95.2,73.3,95.2z M73.3,58.8
		c-8,0-14.4,6.5-14.4,14.4c0,8,6.5,14.4,14.4,14.4c8,0,14.4-6.5,14.4-14.4C87.7,65.3,81.2,58.8,73.3,58.8z"/>
	<path class="st5" d="M96.1,55.5c-3,0-5.4-2.4-5.4-5.4c0-3,2.4-5.4,5.4-5.4c3,0,5.4,2.4,5.4,5.4C101.4,53.1,99,55.5,96.1,55.5z"/>
</g>
</svg>
