<svg id="Layer_1" data-name="Layer 1" xmlns="http://www.w3.org/2000/svg" viewBox="0 0 202.71 202.74"><title>phone</title><path d="M101.39,0A101.37,101.37,0,1,1,0,101.67,101.32,101.32,0,0,1,101.39,0Zm0,196.58a95.2,95.2,0,1,0-.35-190.4c-52.41.05-95,42.76-94.93,95.28A95.2,95.2,0,0,0,101.43,196.58Z" fill="#a63e51"/><path d="M37.32,77a37,37,0,0,1,9-25c.89-1.07,1.85-2.09,2.82-3.09a7.59,7.59,0,0,1,4.91-2.16A8.23,8.23,0,0,1,61,49c3.41,3.23,7,6.29,10.28,9.61,2.85,2.84,5.42,5.95,8.14,8.92,4.27,4.67,2.51,9.62-.67,12.8-2.12,2.11-4.33,4.14-6.47,6.24s-2.14,2.13-.73,4.74a96.5,96.5,0,0,0,8.24,13.08,90.76,90.76,0,0,0,14.28,14.18,74.41,74.41,0,0,0,14.87,9.67,1.41,1.41,0,0,0,2-.28c2-2.16,4-4.34,6.24-6.33a25.1,25.1,0,0,1,5-3.67,6.88,6.88,0,0,1,8.12.83c3.5,3,7,6,10.26,9.18s6.54,6.73,9.78,10.12a8.21,8.21,0,0,1,2.16,7.58c-1,5.26-3,10.16-6.68,14.18a18,18,0,0,1-12.18,5.7c-6.22.51-12.09-1.06-17.82-3.24a110.66,110.66,0,0,1-20.46-10.77,199,199,0,0,1-18.16-13.23c-2.83-2.31-5.72-4.58-8.36-7.11A147.34,147.34,0,0,1,50,109.52a79.73,79.73,0,0,1-9.42-17.21C38.57,87.05,37.27,81.64,37.32,77Z" fill="#a63e51"/><path d="M86,37.08a119,119,0,0,1,24,3.54A71.8,71.8,0,0,1,138.58,55a65.75,65.75,0,0,1,10,10.59,74.75,74.75,0,0,1,10.84,20.8,92.9,92.9,0,0,1,4.56,19.38c.6,5,.94,9.94,1.43,14.9a1.41,1.41,0,0,1-1.13,1.72,7.21,7.21,0,0,1-2.25.29c-1.77-.15-2.14-.61-2.21-2.38a119.34,119.34,0,0,0-4.25-27.66,71.65,71.65,0,0,0-12.06-24.58A60,60,0,0,0,117.4,48.93,83.1,83.1,0,0,0,95.46,43.6c-4.43-.47-8.89-.69-13.34-.94a1.73,1.73,0,0,1-1.76-1.27,4.28,4.28,0,0,1,.21-3.4,1.49,1.49,0,0,1,1.58-.93C83.41,37.14,84.68,37.08,86,37.08Z" fill="#a63e51"/><path d="M93.21,55.93c8.64.37,16.84,1.71,24.58,5.21a43.42,43.42,0,0,1,15,11.16,51.46,51.46,0,0,1,10.49,20,95.28,95.28,0,0,1,3.26,21.57,1.45,1.45,0,0,1-1.12,1.71,6.56,6.56,0,0,1-2.05.33c-1.94-.1-2.38-.61-2.46-2.52a80.78,80.78,0,0,0-3.59-21.6,43.23,43.23,0,0,0-11-18.27,40,40,0,0,0-15.07-8.93A67.59,67.59,0,0,0,89.7,61.45c-1.49,0-2.1-.44-2.35-1.92a5.44,5.44,0,0,1,0-2c.25-1.27.77-1.62,2.06-1.63Z" fill="#a63e51"/><path d="M97.2,81c-.77,0-1.53,0-2.3,0a2.31,2.31,0,0,1-2.72-2.38,5,5,0,0,1,.16-1.48,1.94,1.94,0,0,1,2-1.69c6-.35,11.85.16,17.38,2.72a24.89,24.89,0,0,1,12,11.94A45.47,45.47,0,0,1,128,107c.1,1.18.34,2.31-1.14,2.9a3.87,3.87,0,0,1-4-.5,1.36,1.36,0,0,1-.36-1,48.34,48.34,0,0,0-2-11.38,23.94,23.94,0,0,0-5.84-10.09,19.52,19.52,0,0,0-10.51-5.33c-2.29-.41-4.62-.57-6.93-.85Z" fill="#a63e51"/></svg>