<svg id="Layer_1" data-name="Layer 1" xmlns="http://www.w3.org/2000/svg" viewBox="0 0 185 92.58"><title>thank-cake</title><path d="M157.24,94.09a5.22,5.22,0,0,1-1-.81,1.12,1.12,0,0,1,.28-1.57,1.06,1.06,0,0,1,.45-.19,5.65,5.65,0,0,1,2.09,0c.44.09,1.14.59,1.13.88,0,.51-.5,1-.79,1.49a1.2,1.2,0,0,1-.26.24Z" transform="translate(0.01 -1.55)" fill="#a63e51"/><path d="M148.58,71h-13.9c-1.53,0-2.35-1.15-1.64-2.31a2.52,2.52,0,0,1,1.54-.86,12.3,12.3,0,0,1,2.27,0H162a7.15,7.15,0,0,1,1.31.08,1.35,1.35,0,0,1,1.19,1.51v0A1.41,1.41,0,0,1,163.27,71h-.07c-1,.09-1.92,0-2.88.06H148.58Z" transform="translate(0.01 -1.55)" fill="#a63e51"/><path d="M140.92,81.81c-2.12,0-4.24.07-6.35,0a2.43,2.43,0,0,1-1.68-1c-.52-.82.11-1.74,1.2-1.76,4-.09,8-.1,12-.14.43,0,.87.07,1.31,0,1,0,1.67.33,1.74,1.36s-.66,1.48-1.6,1.5h-6.62Z" transform="translate(0.01 -1.55)" fill="#a63e51"/><path d="M38.15,81.35H31.68c-.94,0-1.68-.2-1.69-1.36s.44-1.49,1.69-1.5H44.27c.92,0,1.94,0,2,1.35,0,1-.57,1.49-2,1.5C42.22,81.36,40.18,81.35,38.15,81.35Z" transform="translate(0.01 -1.55)" fill="#a63e51"/><path d="M11.38,84.23a3.6,3.6,0,0,1-3.69-3.51c0-.1,0-.21,0-.31a3.72,3.72,0,0,1,3.72-3.72h.1a3.81,3.81,0,0,1,3.73,3.86,3.72,3.72,0,0,1-3.76,3.68Zm3.08-3.78a3,3,0,0,0-3-3h-.09a3,3,0,1,0,3.09,3Z" transform="translate(0.01 -1.55)" fill="#a63e51"/><path d="M36.67,22.13c-3.5-.55-3.5-.55-3.47-1.17h3.47V18.14c0-.28.29-.53.44-.79.18.25.5.49.52.75.07.87,0,1.75,0,2.85h2.88c.26,0,.5.32.74.49-.24.18-.48.48-.73.5-.91.06-1.82,0-2.89,0v2.84c0,.27-.33.51-.5.77-.17-.26-.44-.51-.46-.78C36.64,23.94,36.67,23.06,36.67,22.13Z" transform="translate(0.01 -1.55)" fill="#a63e51"/><path d="M16.53,31.81a3.66,3.66,0,0,1-3.5,3.8h-.24a3.83,3.83,0,0,1-3.86-3.72A4,4,0,0,1,12.74,28,3.82,3.82,0,0,1,16.53,31.81Zm-.72.1a3.2,3.2,0,0,0-2.92-3.09,3.06,3.06,0,1,0-.15,6.11,3.27,3.27,0,0,0,3.07-3Z" transform="translate(0.01 -1.55)" fill="#a63e51"/><path d="M152.69,43.84c.09.31.31.64.26.91-.17.73-.44,1.44-.68,2.16-.18.54-.1.89.55,1a11.52,11.52,0,0,1,2,.69c.2.1.29.45.43.68-.23.07-.48.23-.68.18a18,18,0,0,1-2-.64c-.57-.21-.89-.09-1.07.52-.27.9-.6,1.79-.91,2.68h-.41a2.61,2.61,0,0,1-.23-1,5.54,5.54,0,0,1,.49-1.59c.48-1,.1-1.45-.88-1.66a7,7,0,0,1-1.46-.49c-.27-.13-.43-.46-.63-.7l.22-.33c.59.17,1.18.32,1.76.5,1.67.53,1.67.54,2.21-1.09.19-.6.39-1.19.59-1.79Z" transform="translate(0.01 -1.55)" fill="#a63e51"/><path d="M18.43,1.78a19.91,19.91,0,0,1,.5,2.44c.08,1,.57,1.17,1.43.92a9.3,9.3,0,0,1,1.72-.32c.21,0,.43.2.65.31-.15.19-.27.5-.46.56a20.92,20.92,0,0,1-2.09.43c-.65.11-.88.45-.73,1.09a13,13,0,0,1,.38,1.86,3.26,3.26,0,0,1-.29,1.1h-.45c-.18-.87-.39-1.75-.53-2.63s-.38-1.11-1.17-.9A7.41,7.41,0,0,1,15.64,7a2.56,2.56,0,0,1-.84-.34c.2-.2.38-.5.62-.57a12.1,12.1,0,0,1,1.87-.36c.73-.1.94-.44.74-1.15a9.89,9.89,0,0,1-.36-2,3,3,0,0,1,.33-1Z" transform="translate(0.01 -1.55)" fill="#a63e51"/><path d="M40.6,55.83l-4.69-7.61h8.32Zm2.7-7H37l3.57,5.79Z" transform="translate(0.01 -1.55)" fill="#a63e51"/><path d="M155.83,81.78c-.44,0-1,.16-1.29,0a2.59,2.59,0,0,1-1.15-1.25,1.06,1.06,0,0,1,.57-1.39,1,1,0,0,1,.43-.08,19.12,19.12,0,0,1,2.83-.09,1.32,1.32,0,0,1,1.27,1.37,1.66,1.66,0,0,1,0,.22c-.08.93-.73,1.14-1.48,1.23a11.81,11.81,0,0,1-1.19,0Z" transform="translate(0.01 -1.55)" fill="#a63e51"/><path d="M147.19,17.42l-7.32,3.65V12.55Zm-1.13-.07-5.69-3.78v6.62Z" transform="translate(0.01 -1.55)" fill="#a63e51"/><path d="M23.1,81.43a3,3,0,0,1-1.49-.15c-.35-.23-1-.86-1-1.31a1.73,1.73,0,0,1,1-1.32,12.67,12.67,0,0,1,2.95-.07c.87,0,1.19.62,1.18,1.35s-.3,1.33-1.17,1.4Z" transform="translate(0.01 -1.55)" fill="#a63e51"/><path d="M2.67,70.76a13.36,13.36,0,0,1-1.55,0A1.16,1.16,0,0,1,0,69.57s0-.07,0-.11a1.06,1.06,0,0,1,.91-1.19H4.25c.78,0,1.14.47,1.12,1.25a1.16,1.16,0,0,1-1,1.27H2.67Z" transform="translate(0.01 -1.55)" fill="#a63e51"/><path d="M182.24,68.51c.49,0,1,.14,1.6.17.87,0,1.18.51,1.15,1.32s-.46,1.11-1.22,1.13-1.59.09-2.39.12-1.52-.08-1.65-1.12.48-1.42,1.37-1.53C181.46,68.56,181.82,68.55,182.24,68.51Z" transform="translate(0.01 -1.55)" fill="#a63e51"/><path d="M67.53,16a2.35,2.35,0,0,1-2.44-2.24,2.09,2.09,0,0,1,0-.25,2.41,2.41,0,0,1,4.82.07A2.33,2.33,0,0,1,67.68,16Zm0-.81a1.71,1.71,0,0,0,1.73-1.6,1.67,1.67,0,0,0-1.64-1.68h0a1.64,1.64,0,1,0-.09,3.28Z" transform="translate(0.01 -1.55)" fill="#a63e51"/><path d="M104.72,6.67a2.3,2.3,0,0,1-2.46-2.13,1.82,1.82,0,0,1,0-.33,2.39,2.39,0,0,1,2.34-2.44h.07a2.56,2.56,0,0,1,2.53,2.51A2.46,2.46,0,0,1,104.72,6.67Zm1.67-2.4a1.75,1.75,0,0,0-1.67-1.69A1.78,1.78,0,0,0,103,4.22a1.75,1.75,0,0,0,1.68,1.64A1.73,1.73,0,0,0,106.39,4.27Z" transform="translate(0.01 -1.55)" fill="#a63e51"/><path d="M172.33,67.81a1.6,1.6,0,0,1,1.78,1.4,1.93,1.93,0,0,1,0,.24c0,1-.72,1.66-1.91,1.65a1.54,1.54,0,0,1-1.64-1.43,1.29,1.29,0,0,1,0-.34,1.52,1.52,0,0,1,1.5-1.54Z" transform="translate(0.01 -1.55)" fill="#a63e51"/><path d="M12.74,67.48c1.18,0,1.75.52,1.74,1.61a1.64,1.64,0,0,1-1.6,1.68h0A1.69,1.69,0,0,1,11,69.27a1.34,1.34,0,0,1,0-.2C11,68,11.52,67.48,12.74,67.48Z" transform="translate(0.01 -1.55)" fill="#a63e51"/><path d="M10.88,90.69a6.71,6.71,0,0,1,1.84,1,1.77,1.77,0,0,1-.32,1.49,11.29,11.29,0,0,1-3.18,0c-.19,0-.51-1.2-.32-1.39A7.83,7.83,0,0,1,10.88,90.69Z" transform="translate(0.01 -1.55)" fill="#a63e51"/><path d="M105.56,9.14a3,3,0,0,1,1.67,1.93,33.23,33.23,0,0,0,2.4,4.38c2.57,4,5.21,8,7.8,12a58.41,58.41,0,0,1,6.3,12.22A26.88,26.88,0,0,1,125.28,47a15.5,15.5,0,0,1-1.11,6.91,14.58,14.58,0,0,1-4.08,5.44,24.75,24.75,0,0,1-6.18,3.62l-2.54.88-2,.46a19.41,19.41,0,0,1-6.27.29,19,19,0,0,1-9.46-3.92c-.86-.67-1.67-1.4-2.5-2.1l-.07,0a1.73,1.73,0,0,0-.17.21,7.46,7.46,0,0,1-3.13,2.42,14.1,14.1,0,0,1-4.3,1,11,11,0,0,1-6.34-1.06,20.83,20.83,0,0,1-2.35-1.68,11.57,11.57,0,0,1-5.18,3.25L67.52,63l-3-.47c-.94-.59-1.93-1.11-2.82-1.78a12,12,0,0,1-3.19-4,31.62,31.62,0,0,1-3.4-8.3,10.74,10.74,0,0,1,.28-6.63,7.89,7.89,0,0,1,4.3-4.25,18.87,18.87,0,0,1,6.71-1.45l2.28-.15c-.27-.73-.57-1.43-.77-2.16a8.6,8.6,0,0,1,1.44-8.09,9.5,9.5,0,0,1,6.12-3.33,6.53,6.53,0,0,1,5.63,1.31,4.59,4.59,0,0,1,.41.36l.37.39c.95-.69,1.86-1.41,2.84-2a36.16,36.16,0,0,1,7.92-3.76c1.73-.58,3.51-1,5.25-1.54A7.05,7.05,0,0,0,103,11.4a2.65,2.65,0,0,1,1.7-2.26ZM90,53.78s.08,0,.1,0a20.15,20.15,0,0,0,4.14,4.65,16.6,16.6,0,0,0,13.58,4,21.82,21.82,0,0,0,10.87-4.64,12.05,12.05,0,0,0,4.58-9,18.6,18.6,0,0,0-.61-5.65,42,42,0,0,0-5.12-11.66c-1.82-3-3.85-5.87-5.72-8.85-2.1-3.35-4.12-6.74-6.16-10.12a11.11,11.11,0,0,1-.55-1.18,1.66,1.66,0,0,0-.08.29,9.31,9.31,0,0,1-7.28,7.57A36.12,36.12,0,0,0,84.51,25c-1.34,1-2.67,2-2.87,3.82a12.07,12.07,0,0,0-.54-1.78,4.18,4.18,0,0,0-3.51-2.78,8.07,8.07,0,0,0-3.64.58,6.33,6.33,0,0,0-4.36,6.21A8.4,8.4,0,0,0,72,36.92l1,.95c-2.09.07-4,.11-6,.21a19,19,0,0,0-5.91,1.09,6,6,0,0,0-4,4.21,9.42,9.42,0,0,0,0,3.92,22.85,22.85,0,0,0,2,5.75,17.65,17.65,0,0,0,4,6.05,6.25,6.25,0,0,0,6.86,1.34,9,9,0,0,0,5.24-5.12c0,.1.08.19.11.29a5.7,5.7,0,0,0,4,4.15,11.57,11.57,0,0,0,7.74-.42A4.55,4.55,0,0,0,90,55.78,12.13,12.13,0,0,0,90,53.78Z" transform="translate(0.01 -1.55)" fill="#a63e51"/><path d="M64.54,62.49l3,.47c0,.69,0,1.37,0,2.06-1.21-.18-2.4-.45-3.61-.53a43.83,43.83,0,0,1-7.81-1.25,14.23,14.23,0,0,1-4.79-1.78.48.48,0,0,0-.78.36,3.56,3.56,0,0,0,0,1.3,11.15,11.15,0,0,0,3.9,6.35l1.35,1.16h0a1.13,1.13,0,0,1-.32-.06c-1.22-.49-2.44-1-3.66-1.48-.58-.23-1.17-.41-1.88-.65a11.16,11.16,0,0,0,2.9,4.87,14.45,14.45,0,0,0,5.84,3.55,7.05,7.05,0,0,1,.73.36c-1.54.6-3.07,0-4.69.31A2.64,2.64,0,0,0,55,78a15.24,15.24,0,0,0,1.66,1.24A10.91,10.91,0,0,0,64,81a6.59,6.59,0,0,0,3.14-1.3,10.55,10.55,0,0,0,2.28-2.57l1,2.24-1.16,1.13A8.76,8.76,0,0,1,63,83.07,13.51,13.51,0,0,1,55.67,81a13.05,13.05,0,0,1-2.34-1.85,2,2,0,0,1-.47-2.5c.16-.31.08-.51-.2-.73a13.36,13.36,0,0,1-4.55-6.3,5.18,5.18,0,0,0-.3-.63v-1.1a2.74,2.74,0,0,1,1.52-1.47c-.28-.93-.58-1.81-.8-2.71A4.17,4.17,0,0,1,49,60.38a2.41,2.41,0,0,1,3.28-.74,10.89,10.89,0,0,0,3.91,1.51c2.14.48,4.32.84,6.49,1.21A17.17,17.17,0,0,0,64.54,62.49Z" transform="translate(0.01 -1.55)" fill="#a63e51"/><path d="M111.37,63.81l2.54-.88c1.08-.17,2.17-.29,3.23-.51a31.62,31.62,0,0,0,6.45-2,5.3,5.3,0,0,0,.94-.56,2.5,2.5,0,0,1,4,1.84,8.92,8.92,0,0,1-.76,4.3c0,.12-.09.24,0,.28l1.41,1.64V69l-.63,1.5a13.63,13.63,0,0,1-3.69,5,6.68,6.68,0,0,0-.69.61.53.53,0,0,0-.06.47c.55,1.15,0,2.31-1,3.23a14.23,14.23,0,0,1-6.79,3.14,9.55,9.55,0,0,1-7.62-1.57c-.19-.14-.34-.32-.52-.48l.87-1.87a7.46,7.46,0,0,0,6.83,1.92c3.14-.64,6.16-2.3,6.34-3.46H117.8l-.1-.29A17.76,17.76,0,0,0,123.45,74a12.24,12.24,0,0,0,3.7-5.54c-.29.07-.45.09-.59.14l-2.42.9-2.85,1.09h0a2.27,2.27,0,0,1,.39-.43,11.83,11.83,0,0,0,3.93-4.41,6.94,6.94,0,0,0,1-3.72c0-.64-.4-.88-.9-.55a18.31,18.31,0,0,1-4.76,2,33.46,33.46,0,0,1-9.4,1.61Z" transform="translate(0.01 -1.55)" fill="#a63e51"/><path d="M111.37,63.81c0,.44.09.89.14,1.33a37.09,37.09,0,0,1-1,8.91c-.41,1.66-.95,3.29-1.43,4.94l-.87,1.87c-.32.55-.64,1.1-1,1.64a6.1,6.1,0,0,1-3.32,2.56,29.94,29.94,0,0,1-6.28,1.29,58,58,0,0,1-8.94.32,42.34,42.34,0,0,1-12.58-2,21.69,21.69,0,0,1-2.15-1c-1.51-.75-2.25-2.15-3-3.53l-.47-.87-1-2.24c-.38-1.37-.82-2.73-1.13-4.12a47.06,47.06,0,0,1-.77-8c0-.69,0-1.37,0-2.06l2.09-.26c.1,2.51.11,5,.32,7.52a23.25,23.25,0,0,0,3,9.45,5.86,5.86,0,0,0,3.33,2.92,32.71,32.71,0,0,0,3.47,1,54.37,54.37,0,0,0,13.17,1,56.88,56.88,0,0,0,8.23-.88,6.67,6.67,0,0,0,5.46-4.26,35.15,35.15,0,0,0,2.78-15.21Z" transform="translate(0.01 -1.55)" fill="#a63e51"/><path d="M90.13,47.07c-.27-1-.56-2-.76-3a11.32,11.32,0,0,1,.83-6.79,19.5,19.5,0,0,1,3.7-5.46Q96.12,29.4,98.44,27c1.15-1.17,2.4-2.25,3.55-3.42A7.26,7.26,0,0,0,103.85,21a7.23,7.23,0,0,0,.26-.94,1.1,1.1,0,0,1,1-.89,1.08,1.08,0,0,1,1,1.07,5.11,5.11,0,0,1-1.34,3.23c-1.15,1.32-2.41,2.55-3.64,3.8s-2.41,2.34-3.56,3.56-2.15,2.39-3.18,3.62A12.43,12.43,0,0,0,91.28,41a9.49,9.49,0,0,0,1.25,6c.36.59.76,1.15,1.15,1.73a.9.9,0,0,1,0,1.2.92.92,0,0,1-1.11.36,30.25,30.25,0,0,1-7.27-3.66,16.31,16.31,0,0,1-6.87-12c0-.76.26-1.12.91-1.18s1,.34,1.07,1a17.07,17.07,0,0,0,1.42,5,14.11,14.11,0,0,0,5.12,5.79c.84.55,1.72,1,2.6,1.53C89.69,46.92,89.9,47,90.13,47.07Z" transform="translate(0.01 -1.55)" fill="#a63e51"/><path d="M98.17,70.09a7.22,7.22,0,0,1-.93,0,2.3,2.3,0,0,1-1.91-2.77A2.26,2.26,0,0,1,98,65.53a5.5,5.5,0,0,0-.39,1.21,1.15,1.15,0,0,0,.37.75c.49.48,1.15.37,1.83-.29a2.32,2.32,0,0,1-.42,2.06Z" transform="translate(0.01 -1.55)" fill="#a63e51"/><path d="M77.43,69.21a6.88,6.88,0,0,1-.35-1.69,2.2,2.2,0,0,1,2.81-2c-.63.81-.68,1.42-.15,1.92s1.12.39,1.83-.23c.53,1.47-.73,2.9-2.52,2.86Z" transform="translate(0.01 -1.55)" fill="#a63e51"/><path d="M98.17,70.09l1.26-.83a2.34,2.34,0,0,1,2.22.77,1.77,1.77,0,0,1,.24,2A2,2,0,0,1,100,73.24a2.09,2.09,0,0,1-1.93-1A1.81,1.81,0,0,1,98.17,70.09Z" transform="translate(0.01 -1.55)" fill="#a63e51"/><path d="M77.43,69.21l1.62.9a4.85,4.85,0,0,1,.28,1.36,2.16,2.16,0,0,1-4.25,0,2,2,0,0,1,1.7-2.22A5,5,0,0,1,77.43,69.21Z" transform="translate(0.01 -1.55)" fill="#a63e51"/><path d="M91.29,70.77a12,12,0,0,1-1.57,4.13c-.77,1.21-1.75,1.23-2.54,0a13.17,13.17,0,0,1-.86-1.77l3.74-1.84C90.46,71.13,90.88,71,91.29,70.77Z" transform="translate(0.01 -1.55)" fill="#a63e51"/><path d="M91.29,70.77c-.41.19-.83.36-1.23.56l-3.74,1.84-.72-2.5h5.66a.08.08,0,0,0,0,.09Z" transform="translate(0.01 -1.55)" fill="#a63e51"/><path d="M91.29,70.76a.08.08,0,0,1,0-.09Z" transform="translate(0.01 -1.55)" fill="#a63e51"/><path d="M55.73,70.63l.05.05-.05-.05Z" transform="translate(0.01 -1.55)" fill="#a63e51"/><path d="M121.29,70.63l-.12.09,0,0,.15,0Z" transform="translate(0.01 -1.55)" fill="#a63e51"/></svg>