<?xml version="1.0" encoding="utf-8"?>
<!-- Generator: Adobe Illustrator 23.1.0, SVG Export Plug-In . SVG Version: 6.00 Build 0)  -->
<svg version="1.1" id="Layer_1" xmlns="http://www.w3.org/2000/svg" xmlns:xlink="http://www.w3.org/1999/xlink" x="0px" y="0px"
	 viewBox="0 0 146.5 146.5" style="enable-background:new 0 0 146.5 146.5;" xml:space="preserve">
<style type="text/css">
	.st0{fill:#621F90;}
	.st1{fill:#FFFFFF;}
</style>
<path class="st0" d="M146.5,73.3c0,40.5-32.8,73.3-73.3,73.3C32.8,146.5,0,113.7,0,73.3C0,32.8,32.8,0,73.3,0
	C113.7,0,146.5,32.8,146.5,73.3z"/>
<g>
	<path class="st1" d="M108.4,74c-1.8,0-1.8-1.4-1.8-2.9c0-0.3,0-0.5,0-0.8c0-0.1,0-0.3,0-0.4c-2.4-18.8-11-29-30.1-30.4
		c-1.2-0.1-3.7-0.4-3.7-1.7c0.1-1.7,1.1-2.1,2.2-2.1c0.3,0,1.5,0,2.3,0c22,1.4,31.7,15.5,33,34.4c0,0.3,0.2,3-0.4,3.6
		C109.4,73.8,109,74,108.4,74L108.4,74z"/>
	<path class="st1" d="M99,70.5c-1.2,0-1.6-0.8-1.7-2.1c0-0.2,0-0.3,0-0.5c0-0.4,0-0.7-0.1-1.1c-1.9-11.4-6.1-15.6-17.8-18.2
		c-0.3-0.1-0.7-0.1-1.1-0.2c-1-0.1-2-0.3-2.5-0.9c-0.2-0.3-0.3-0.8-0.2-1.4c0.2-1.1,0.8-1.7,1.9-1.6c14.5,1.3,22.7,9,23.3,24.5
		c0,0.8-0.5,1.2-1.3,1.3C99.3,70.5,99.1,70.5,99,70.5L99,70.5z"/>
	<path class="st1" d="M90.2,67.7c-0.5,0-0.9-0.2-1.2-0.6c-0.3-0.4-0.5-0.9-0.6-1.4c-0.5-4.8-3.2-7.6-7.9-8.4c-0.8-0.1-1.7-0.3-2-0.9
		c-0.2-0.3-0.2-0.8,0-1.4c0.4-1.1,1.5-1.3,2.7-1.3c2.2,0.1,5.2,1.3,7.5,3.6c2.2,2.3,3.5,5,3.5,7.4c0,1,0,2.1-0.8,2.7
		c-0.2,0.2-0.5,0.3-0.9,0.3C90.3,67.7,90.2,67.7,90.2,67.7z"/>
	<path class="st1" d="M96.3,111c-2.6,0-5.2-1.3-7.6-2.4c-0.4-0.2-0.8-0.4-1.3-0.6c-3.3-1.6-6.6-3.3-9.7-5.1
		C65.4,95.6,54.8,85.8,47,74.6c-2.2-3.1-4.2-6.4-6-9.8l-0.2-0.5C39,60.8,37,57.2,36,53.5c-1.5-5.9,0.8-11.5,6-14.6
		c2.4-1.5,4.6-2.2,6.4-2.2c1,0,1.9,0.2,2.7,0.7c1.8,1,3.2,2.6,4.5,4.1c3,3.4,6.6,7.8,8.3,12.5c0.8,2.3,0,4.6-2.3,6.4
		c-0.3,0.2-0.6,0.4-0.9,0.7c-1.1,0.8-2.3,1.7-3,3s-0.9,2.9-0.5,4.6c0.7,2.9,2.4,6,5.2,9.5c2.1,2.6,4.6,4.9,7.4,6.9
		c2.8,1.9,6,4,9.2,4.6c0.4,0.1,0.8,0.1,1.1,0.1c1.3,0,2.5-0.4,3.4-1.2c0.7-0.6,1.3-1.3,1.8-2.1c0.5-0.6,1-1.3,1.6-1.8
		c1.3-1.2,2.9-1.8,4.6-1.8c1.1,0,2.2,0.3,3.4,0.7c1.5,0.7,2.9,1.6,4.2,2.6l0.8,0.6c1.6,1.1,3.4,2.4,5.1,3.7l1,0.8l0,0
		c0.1,0,0.1,0.1,0.2,0.1c2.3,1.7,4.7,3.5,4.6,6.5c-0.1,3.6-3,6.8-4.7,8.5c-2.7,2.6-5.9,4.2-8.9,4.6C97,111,96.7,111,96.3,111
		L96.3,111z"/>
</g>
</svg>
