<svg id="OBJECTS" xmlns="http://www.w3.org/2000/svg" viewBox="0 0 260.83 289.3"><title>logo</title><circle cx="130.42" cy="130.42" r="103.74" fill="none" stroke="#bd7b87" stroke-miterlimit="10" stroke-width="33.79"/><path d="M184.18,143.19a21.81,21.81,0,0,0-.14-2.91,25.43,25.43,0,0,0-.44-2.73c-.2-.88-.45-1.74-.7-2.6s-.46-1.69-.69-2.54c-.12-.44-.25-.88-.36-1.32s-.18-.79-.26-1.19c0,0,0,0,0-.07h0a8.27,8.27,0,0,1-.14-1.1,14.41,14.41,0,0,1,0-1.61c0-.51.1-1,.19-1.54a0,0,0,0,1,0,0h0s0,0,0,0h0c.15-.76.34-1.52.56-2.27.1-.36.21-.73.33-1.09l.36-1.16c.15-.47.3-1,.46-1.42.07-.21.13-.41.19-.62s.11-.45.17-.68c.13-.48.24-1,.34-1.46a12.84,12.84,0,0,0,.25-1.53,12.64,12.64,0,0,0,0-2.46c0-.2,0-.38,0-.57a5.1,5.1,0,0,0-.2-1.09c0-.17-.11-.34-.17-.51a3.71,3.71,0,0,0-.22-.55,3.63,3.63,0,0,0-.28-.51,4.49,4.49,0,0,0-.37-.49,7.65,7.65,0,0,0-.89-.91,9.68,9.68,0,0,0-1.43-1,18.59,18.59,0,0,0-2.28-1.13c-.84-.34-1.7-.64-2.56-.91l-.43-.12c-.92-.26-1.86-.48-2.79-.67-.45-.1-.9-.2-1.35-.28l-1.41-.26-.14,0a0,0,0,0,0,0,0h-.1l-.07,0c-1.45-.25-2.92-.42-4.39-.56l-3.07-.27-2.92-.29q-3-.28-6-.43l-3-.14-2.86-.14h-.21l-1.36,0-.34,0h-.9l-.62,0-1.28,0-1.07,0h-.2a1.08,1.08,0,0,1-.18,0h-.29l-.49,0a1.13,1.13,0,0,0-.63.09.81.81,0,0,0-.1.09.12.12,0,0,0-.11.1v0a1.3,1.3,0,0,0-.08.17s0,0,0,0l0,.08-.05.12,0,0a.51.51,0,0,0-.06.2c0,.07,0,.13,0,.2s-.07.32-.11.48,0,.28-.07.42a10.74,10.74,0,0,1-.27,1.12c-.14.43-.29.87-.47,1.28a5.76,5.76,0,0,1-.33.6,10.78,10.78,0,0,1-.67,1,10.16,10.16,0,0,1-.7.76h0a5.18,5.18,0,0,1-.58.47,8.46,8.46,0,0,1-.91.55h0a9.78,9.78,0,0,1-1.19.53,14.39,14.39,0,0,1-1.94.57c-.22,0-.45.09-.67.12l-.68.1c-.25,0-.51,0-.77,0s-.51,0-.77,0a14.4,14.4,0,0,1-1.75-.17,7.68,7.68,0,0,1-.83-.19,11.73,11.73,0,0,1-1.12-.43,8.11,8.11,0,0,1-.92-.49c-.3-.19-.59-.39-.86-.6a8.45,8.45,0,0,1-.81-.77,9,9,0,0,1-.68-.82c-.16-.23-.3-.48-.44-.72a5.17,5.17,0,0,1-.28-.64v0s0,0,0,0h0a10.16,10.16,0,0,1-.36-1.19h0a.08.08,0,0,0,0,0h0c0-.21-.08-.43-.11-.64s-.06-.39-.08-.59v-.21c0-.13,0-.27,0-.41s-.06-.39-.25-.44a.3.3,0,0,0-.21,0,5.12,5.12,0,0,0-.78-.06h-1c-.7,0-1.4,0-2.1,0h-.35c-1.11,0-2.22.1-3.33.17s-2.08.15-3.12.24-1.94.2-2.91.32-2,.25-3,.39-2.07.3-3.1.47h0l-.3.06a1.13,1.13,0,0,0-.18,0h-.09l-.29,0q-3.06.52-6.08,1.18c-1.94.43-3.88.85-5.78,1.43A29.23,29.23,0,0,0,84.34,108h-.06l-.91.43c-.33.18-.66.37-1,.57a8.77,8.77,0,0,0-1.52,1.19,5.4,5.4,0,0,0-.79.93,4.68,4.68,0,0,0-.58,1.29,7,7,0,0,0-.2,2.58c0,.41.12.82.2,1.22s.25,1,.4,1.48.29.94.4,1.41.18.81.25,1.21a17.4,17.4,0,0,1,.19,1.91,22,22,0,0,1-.08,2.69,24.06,24.06,0,0,1-.48,2.82c-.17.69-.36,1.37-.59,2s-.4,1.23-.63,1.84c0,0,0,0,0,0-.1.28-.21.56-.34.84q-.56,1.28-1,2.58a23.09,23.09,0,0,0-.76,2.54,14.58,14.58,0,0,0-.42,2.79c0,.48,0,.95,0,1.43a6.1,6.1,0,0,0,.19,1.21,5.46,5.46,0,0,0,.93,1.75,4.12,4.12,0,0,0,.66.66,2.66,2.66,0,0,0,.94.46,5.7,5.7,0,0,0,1.17.18h.21a8.3,8.3,0,0,0,1.4-.09,6.58,6.58,0,0,0,1.48-.43,9.45,9.45,0,0,0,1.14-.59,6.72,6.72,0,0,0,1.25-.92,11.31,11.31,0,0,0,.9-1.05,16.49,16.49,0,0,0,1.45-2.42,9.92,9.92,0,0,0,1-2.89,9.4,9.4,0,0,0-.08-2.9.08.08,0,0,0,0,0s0-.09,0-.13c-.15-.83-.33-1.66-.52-2.48s-.42-1.69-.57-2.55a16.43,16.43,0,0,1-.18-1.72,13.28,13.28,0,0,1,0-1.41,8.6,8.6,0,0,1,.19-1.13c0-.14.07-.26.11-.39a4.69,4.69,0,0,1,.21-.46,3.28,3.28,0,0,1,.2-.31,2.15,2.15,0,0,1,.23-.28c0-.06.11-.11.16-.16l.19-.13.08,0,.07,0,.09,0h.08l0,0,.06.07,0,.07,0,0a.88.88,0,0,1,.05.15.74.74,0,0,1,0,.14.17.17,0,0,0,0,.07,5.46,5.46,0,0,1,0,.56c0,.15,0,.31-.07.46-.13.83-.34,1.65-.44,2.49a11.94,11.94,0,0,0-.16,3,5.08,5.08,0,0,0,.36,1.39,4.7,4.7,0,0,0,.79,1.23,8.46,8.46,0,0,0,1,.93,3.15,3.15,0,0,0,.63.39,3.09,3.09,0,0,0,.67.22,6.13,6.13,0,0,0,1.35.14,3.32,3.32,0,0,0,.64,0,4.62,4.62,0,0,0,.66-.21q.28-.1.57-.24a4.79,4.79,0,0,0,.58-.33,5.93,5.93,0,0,0,.64-.48,3,3,0,0,0,.53-.6,4.56,4.56,0,0,0,.62-1.39,4.7,4.7,0,0,0,.18-1.24,5.36,5.36,0,0,0-.13-1.13c-.08-.33-.16-.66-.25-1a7.48,7.48,0,0,1-.24-1c0-.22,0-.43-.06-.65a2.54,2.54,0,0,1,0-.39,1.91,1.91,0,0,1,0-.21,1.38,1.38,0,0,1,.08-.27c0-.12.11-.25.17-.37a0,0,0,0,0,0,0h0v0a0,0,0,0,1,0,0,4.3,4.3,0,0,1,.29-.45,3.11,3.11,0,0,1,.23-.28.52.52,0,0,1,.11-.1s0,0,.07-.06l.12-.06.16-.07h.13l.21,0,.33,0,.17,0,.2.07h0a2.24,2.24,0,0,1,.27.13,1.07,1.07,0,0,1,.21.13,2.11,2.11,0,0,1,.23.19,1.12,1.12,0,0,1,.18.2,1.77,1.77,0,0,1,.16.22,3.17,3.17,0,0,1,.21.41,6.55,6.55,0,0,1,.27.74,19.84,19.84,0,0,1,.45,2,25.17,25.17,0,0,1,.29,3c0,.67,0,1.33,0,2s-.06,1.22-.11,1.82a28.47,28.47,0,0,1-.61,3.56,29.36,29.36,0,0,1-1.09,3.53l0,.12c-.2.5-.41,1-.63,1.48-.37.81-.76,1.63-1.14,2.44l-.6,1.29c-.2.47-.39.95-.57,1.43a22.1,22.1,0,0,0-.78,2.55,13.67,13.67,0,0,0-.27,1.42,11.3,11.3,0,0,0,0,1.3,8.36,8.36,0,0,0,.23,1.79c.09.32.18.65.3,1s.25.6.4.89a5.55,5.55,0,0,0,1.7,2,9.59,9.59,0,0,0,1.06.74,8,8,0,0,0,1.11.53l0,0h0q.65.24,1.32.42a5.6,5.6,0,0,0,.59.12l.37,0h.34a7.81,7.81,0,0,0,1.45-.12,7.32,7.32,0,0,0,2.48-.9h0l0,0a7.39,7.39,0,0,0,1.77-1.57,11.66,11.66,0,0,0,1.51-2.23,12.4,12.4,0,0,0,1-2.76s0-.05,0-.08a9.76,9.76,0,0,0,.29-2.15,10.85,10.85,0,0,0-.11-2,18,18,0,0,0-.72-2.87c-.3-.94-.63-1.87-.92-2.82h0q-.25-.85-.48-1.74c-.13-.53-.24-1.08-.33-1.62a.17.17,0,0,1,0-.07h0c-.09-.55-.16-1.1-.21-1.66s-.11-1.1-.13-1.66a1.48,1.48,0,0,1,0-.21c0-.37,0-.73,0-1.1a9.08,9.08,0,0,1,.07-1,15.35,15.35,0,0,1,.31-1.9,16.68,16.68,0,0,1,.54-1.79c.14-.34.28-.67.45-1a8.39,8.39,0,0,1,.5-.81c.24-.31.49-.6.75-.88a6.7,6.7,0,0,1,.74-.66c.16-.14.34-.27.52-.4l.39-.2.24-.09.23-.05.37,0h.22a3.81,3.81,0,0,1,.47.07l.29.09.42.19a2.84,2.84,0,0,1,.34.22,2.66,2.66,0,0,1,.31.26c.12.12.23.24.34.37l.24.33.15.31a7.09,7.09,0,0,1,.26.73,2.83,2.83,0,0,1,.09.37,7.34,7.34,0,0,1,.08.82,7.18,7.18,0,0,1,0,.8,6.93,6.93,0,0,1-.16.89,9.28,9.28,0,0,1-.35,1.17c-.43,1.11-.94,2.2-1.32,3.33a9.15,9.15,0,0,0-.54,2.53,6.79,6.79,0,0,0,.07,1.35,5.3,5.3,0,0,0,.37,1.35,5.94,5.94,0,0,0,.67,1.21c.13.18.28.35.43.52a6.17,6.17,0,0,0,.46.43,4,4,0,0,0,.57.38,4.59,4.59,0,0,0,.6.27,5,5,0,0,0,1.21.28c.23,0,.47,0,.7,0s.48,0,.72,0a3.4,3.4,0,0,0,.77-.16,5.1,5.1,0,0,0,1.31-.68,4.92,4.92,0,0,0,1.13-1,8.39,8.39,0,0,0,.82-1.22h0a8.72,8.72,0,0,0,.61-1.4,9.75,9.75,0,0,0,.35-1.39c.08-.41.13-.83.17-1.24a6.89,6.89,0,0,0-.07-1.44,11.86,11.86,0,0,0-.57-2c-.21-.56-.42-1.1-.6-1.66h0v0h0a10,10,0,0,1-.26-1.11c0-.33-.08-.66-.1-1a7.09,7.09,0,0,1,0-.79c0-.14,0-.28.06-.41s.13-.44.21-.65.13-.29.21-.44a3.87,3.87,0,0,1,.24-.37,2.12,2.12,0,0,1,.2-.24,1.54,1.54,0,0,1,.19-.17.24.24,0,0,1,.09-.06l.07,0,0,0,.32-.07h.14a3.39,3.39,0,0,1,.45.15,2.2,2.2,0,0,1,.31.15c.23.14.46.28.68.44a4.88,4.88,0,0,1,.54.48,10.47,10.47,0,0,1,.89,1,10,10,0,0,1,.76,1.08,10.81,10.81,0,0,1,.65,1.21c.16.36.31.72.44,1.09s.26.76.37,1.14a0,0,0,0,1,0,0v0h0c.18.62.35,1.24.53,1.86l0,0h0v0h0l0,0c.2.67.39,1.36.6,2s.45,1.37.68,2.06.56,1.65.85,2.48a25.11,25.11,0,0,0,1,2.48,6.88,6.88,0,0,0,1.22,1.89,5.21,5.21,0,0,0,1.84,1.24,6.8,6.8,0,0,0,1.94.4,3.62,3.62,0,0,0,.57,0,4.13,4.13,0,0,0,.69-.11,6.34,6.34,0,0,0,.73-.26,5.45,5.45,0,0,0,.72-.37,4.06,4.06,0,0,0,.51-.42,9.06,9.06,0,0,0,1.71-2.31,11.45,11.45,0,0,0,.93-2.55,0,0,0,0,1,0,0h0a.43.43,0,0,1,0-.05c.47-1.89.74-3.81,1.2-5.69a20.1,20.1,0,0,1,.75-2.43,17.17,17.17,0,0,1,.76-1.63,15.07,15.07,0,0,1,.87-1.37c.19-.24.39-.48.61-.71l.34-.3.4-.29.52-.28.27-.1.16,0h.26l.1,0,.13.08a.86.86,0,0,1,.14.13h0l0,0c.07.1.12.22.19.32l.21.39a.59.59,0,0,0,0,.08c.21.44.4.89.59,1.34s.25.67.39,1,.32.79.52,1.17a7.81,7.81,0,0,0,.71,1.21,4.09,4.09,0,0,0,.8.86,3.19,3.19,0,0,0,.42.3,4.12,4.12,0,0,0,.45.27,4,4,0,0,0,.6.25,5.16,5.16,0,0,0,1.3.25,5.81,5.81,0,0,0,1.18-.08l.06,0a5,5,0,0,0,1-.29,8,8,0,0,0,1.15-.64,7.2,7.2,0,0,0,1.84-1.81,10.75,10.75,0,0,0,.73-1.16,11.93,11.93,0,0,0,.58-1.26c.35-.87.65-1.76,1-2.65l0-.06h0c.17-.51.34-1,.54-1.53s.41-.94.63-1.41a7.14,7.14,0,0,1,.4-.71,6.87,6.87,0,0,1,.48-.62,3.78,3.78,0,0,1,.39-.41l.2-.15a2.5,2.5,0,0,1,.35-.21l.34-.14.18-.05h.4l.19,0,.12,0,.37.15.31.18.11.09.21.19.25.32c.07.12.14.23.2.35a6,6,0,0,1,.26.66,4.43,4.43,0,0,1,.13.49,11.88,11.88,0,0,1,.16,1.32,8.08,8.08,0,0,1,0,1.1,6.1,6.1,0,0,1-.13.84,13.63,13.63,0,0,1-.42,1.55c-.22.63-.43,1.27-.69,1.88s-.51,1.22-.76,1.83c-.31.78-.61,1.56-.87,2.35a19.19,19.19,0,0,0-.7,2.88c-.08.49-.15,1-.19,1.48s-.05,1,0,1.5a12.44,12.44,0,0,0,.09,1.37,5.45,5.45,0,0,0,.14.79c.05.22.12.44.19.65a11.37,11.37,0,0,0,.45,1.09,7.25,7.25,0,0,0,.72,1.19,8.57,8.57,0,0,0,1,1.11,6.82,6.82,0,0,0,.88.73,6.14,6.14,0,0,0,.89.53,7.68,7.68,0,0,0,.79.32h0a6.87,6.87,0,0,0,1,.26c.28,0,.57.08.86.1h.07a5.67,5.67,0,0,0,.82,0,7.83,7.83,0,0,0,1.78-.37,10,10,0,0,0,1.26-.54,6.33,6.33,0,0,0,1.6-1,7.81,7.81,0,0,0,1.44-1.85,11.06,11.06,0,0,0,1.42-5.42Zm-103.41-.64a.06.06,0,0,1,0,0s0,0,0,0h0a0,0,0,0,1,0,0h0l0,0h-.27a1.27,1.27,0,0,1-.18-.06l-.09,0h0l-.17-.12-.13-.1-.13-.15a2,2,0,0,1-.17-.23l-.13-.26a1.75,1.75,0,0,1-.12-.32,3.69,3.69,0,0,1-.11-.45,6.64,6.64,0,0,1-.1-1,9.2,9.2,0,0,1,0-1.05c0-.23.05-.45.09-.68s.08-.47.13-.7.11-.45.17-.67.12-.38.19-.56l0-.09c.15-.38.3-.75.48-1.12a10,10,0,0,0-.27,1,7.39,7.39,0,0,0-.15,1.15,6.65,6.65,0,0,0,0,1.41,9.14,9.14,0,0,0,.25,1.35c.11.43.25.86.39,1.29.1.28.21.56.31.85h0s0,0,0,0a.57.57,0,0,0,0,.14s0,0,0,.06v.07S80.77,142.54,80.77,142.55ZM85,117.23a.45.45,0,0,1,0,.11s0,.06,0,.09l0,0s0,0,0,0a0,0,0,0,1,0,0l-.05.06-.06.05,0,0-.11,0h0a.32.32,0,0,0-.09,0l-.08,0h-.31l-.11,0-.14,0h0a0,0,0,0,0,0,0l-.21-.11h0a0,0,0,0,1,0,0,1.07,1.07,0,0,1-.22-.15,3,3,0,0,1-.27-.23c-.12-.13-.23-.26-.34-.4a6,6,0,0,1-.46-.66,5.81,5.81,0,0,1-.31-.61,4.4,4.4,0,0,1-.18-.51v0a5,5,0,0,1-.15-.75,3.39,3.39,0,0,1-.06-.64c0-.28,0-.56,0-.84s.06-.31.1-.45a3.93,3.93,0,0,1,.19-.58,4.54,4.54,0,0,1,.21-.45h0l0-.06c0,.06,0,.12,0,.17a2.75,2.75,0,0,0,0,.64,4.7,4.7,0,0,0,.13.63,3.75,3.75,0,0,0,.25.71c.1.22.23.44.35.65a14.35,14.35,0,0,0,.85,1.24,10.6,10.6,0,0,1,.74,1c.1.17.19.34.28.52a2.83,2.83,0,0,1,.11.31s0,0,0,.06Zm8.34,15v0l0,.07a.42.42,0,0,1,0,.1v0l0,.05H93.1l-.07,0a.86.86,0,0,1-.2-.13.39.39,0,0,1-.1-.08l-.16-.16-.29-.39h0c-.07-.12-.13-.24-.19-.36a4.29,4.29,0,0,1-.19-.5,8.08,8.08,0,0,1-.2-.85c0-.21,0-.42,0-.64a7,7,0,0,1,0-1h0a6.42,6.42,0,0,1,.14-.74c0-.12.06-.25.1-.38v.06c0,.23,0,.46.06.68a8.79,8.79,0,0,0,.34,1.52h0a6.84,6.84,0,0,0,.25.72l.3.69.27.6c.06.15.11.28.16.43a1.16,1.16,0,0,1,0,.18s0,.08,0,.12Zm7.93,25.95,0,.11v0h0l-.06.16,0,0v0h0l0,0,0,0-.06,0h0a0,0,0,0,0,0,0h-.19l-.1,0-.14-.06-.21-.12a1.22,1.22,0,0,1-.17-.15,2.06,2.06,0,0,1-.29-.3l0,0a3.36,3.36,0,0,1-.31-.43,8.94,8.94,0,0,1-.44-.8q-.17-.41-.3-.81t-.15-.66a6.86,6.86,0,0,1-.09-.9h0v0c0-.29,0-.59,0-.89a8.41,8.41,0,0,1,.15-.85h0v0c.11-.45.25-.88.4-1.31a12.42,12.42,0,0,1,.52-1.18c.12-.21.24-.42.37-.63h0a6.08,6.08,0,0,0-.25,1.27,8.92,8.92,0,0,0-.05,1.37q0,.67.15,1.35a14.48,14.48,0,0,0,.59,2.24c.13.36.27.71.4,1.06s.24.62.34.94c0,.09,0,.18.07.28v0h0a.31.31,0,0,1,0,.1.15.15,0,0,1,0,.07S101.27,158.18,101.26,158.2Zm16.45-41.54c-.7.17-1.39.33-2.09.47-.9.18-1.82.29-2.74.38l-1.16.12c-1,.09-2.06.19-3.08.24-.49,0-1,0-1.48.06h-1.35c-.63,0-1.26,0-1.89-.09s-1.43-.15-2.13-.25l-.19,0h-.1c-.91-.14-1.81-.31-2.72-.46s-2.07-.36-3.09-.59c-.5-.11-1-.23-1.48-.36q-.34-.08-.69-.18l.22,0h0c.61.09,1.23.16,1.85.22l1.85.16,3.08.21.85,0c.71,0,1.43.06,2.14.06,1,0,2,0,3,0s1.9-.09,2.85-.15,2.06-.15,3.09-.2l1.53-.08c.51,0,1,0,1.52,0a14.43,14.43,0,0,1,2.07.16c.26,0,.51.08.78.14Zm2,26.26a.43.43,0,0,1,0,.11.7.7,0,0,1,0,.12s0,0,0,0h0l0,0-.06.06,0,0-.07,0h-.19l-.09,0h0l-.14-.07-.14-.09a.88.88,0,0,1-.15-.12l-.2-.21c-.1-.13-.2-.27-.29-.41A4.67,4.67,0,0,1,118,142c-.07-.18-.14-.36-.2-.54a5.84,5.84,0,0,1-.15-.6,3.39,3.39,0,0,1,0-.55,5.37,5.37,0,0,1,0-.57h0v0h0a7.58,7.58,0,0,1,.13-.81,9,9,0,0,1,.31-1,6.66,6.66,0,0,0,.2,1.17,11.12,11.12,0,0,0,.51,1.4c.18.42.38.82.57,1.23,0,0,0,0,0,.05a6,6,0,0,1,.34.83.9.9,0,0,1,.06.22s0,.11,0,.16Zm15.89-3.53a.49.49,0,0,0,0-.12.56.56,0,0,0,0,.12Zm4.3,6.74v0s0,0,0,0l0,.05,0,0h-.06l-.09,0h-.2l-.15,0a.85.85,0,0,1-.22-.09l-.3-.18c-.14-.1-.28-.22-.41-.33a6.63,6.63,0,0,1-.52-.54,8.17,8.17,0,0,1-.6-.85,11,11,0,0,1-.76-1.44,9.61,9.61,0,0,1-.48-1.3,10.78,10.78,0,0,1-.34-1.47h0a1.1,1.1,0,0,1,0-.18l.08.15c.16.27.29.55.46.82.26.44.56.87.86,1.29s.57.78.88,1.15.59.74.89,1.1a12.13,12.13,0,0,1,.75,1l0,0a2,2,0,0,1,.15.29,1,1,0,0,1,.09.22.83.83,0,0,1,0,.15v0Zm19.29-10.64h0l0,.05,0,0-.06.07h0l0,0-.15,0h-.16l-.1,0-.14-.06a1.71,1.71,0,0,1-.23-.13l-.34-.25a5.29,5.29,0,0,1-.41-.41c-.14-.17-.28-.35-.4-.53a10.87,10.87,0,0,1-.75-1.32,11.5,11.5,0,0,1-.49-1.22l-.18-.58.1.14a9,9,0,0,0,1,1.16q.45.45.9.87c.34.32.68.62,1,1,.1.12.19.24.29.38v0h0a2.17,2.17,0,0,1,.19.33.91.91,0,0,1,.07.14.43.43,0,0,0,0,.05s0,.06,0,.1ZM174.78,149v0s0,0,0,0h0a.44.44,0,0,1-.08.11l0,0-.06.06h0l-.05,0h-.22l-.17-.05-.14,0-.21-.12-.3-.22c-.11-.1-.23-.21-.33-.32a6.12,6.12,0,0,1-.45-.56,5.09,5.09,0,0,1-.3-.5v0a6.31,6.31,0,0,1-.33-.75,10.39,10.39,0,0,1-.33-1.16,8,8,0,0,1-.13-1,9.36,9.36,0,0,1,.17-2.6,11.11,11.11,0,0,1,.34-1.29,8,8,0,0,1,.32-.86l.36-.68q-.06.34-.09.69a11.41,11.41,0,0,0-.07,1.54,12.81,12.81,0,0,0,.14,1.52,11.64,11.64,0,0,0,.32,1.42,12.25,12.25,0,0,0,.49,1.4c.18.43.37.86.58,1.29s.38.77.53,1.17l.09.34,0,.17a2.09,2.09,0,0,1,0,.25S174.78,149,174.78,149Zm6.77-35.39a9.77,9.77,0,0,1-1.12.92h0l0,0h0a7.66,7.66,0,0,1-.7.46l-.66.38a14.89,14.89,0,0,1-1.72.79l-.06,0c-.34.12-.69.24-1,.34s-.71.19-1.07.27c-.64.15-1.28.28-1.93.38s-1.16.15-1.74.22h-.13c-.84.09-1.7.16-2.55.19-.6,0-1.19,0-1.79.05l1.17-.08c.5,0,1-.12,1.51-.21s1-.18,1.44-.3a23.34,23.34,0,0,0,3-.9c.67-.25,1.35-.53,2-.83s1.32-.63,2-1h0l1.59-.89,1.4-.8a7.27,7.27,0,0,1,.75-.35h0l.28-.1h0l.18,0h.18v0s0,0,0,0h0v0s0,0,0,0,0,.08,0,.12l0,.08-.17.24c-.07.09-.13.18-.21.27A4.85,4.85,0,0,1,181.55,113.61Z" fill="#bd7b87"/><path d="M151.8,80.43a.77.77,0,0,0-.12-.26,1.21,1.21,0,0,0-.5-.37,5.18,5.18,0,0,0-.94-.31,10.6,10.6,0,0,0-1.25-.24c-.24,0-.47,0-.71-.06h-.7a9.49,9.49,0,0,0-1.42.16,13.13,13.13,0,0,0-2.69.84,23.78,23.78,0,0,0-2.67,1.34c-.43.26-.86.53-1.28.82s-.79.58-1.17.88l0,0h0c-.25.2-.48.41-.72.62s-.44.38-.65.58c-.74.7-1.44,1.42-2.11,2.18s-1.34,1.54-2,2.36c-.45.6-.88,1.22-1.27,1.86a13.82,13.82,0,0,0-1,1.91l-.1,0a4.3,4.3,0,0,0-1.34,0,6.47,6.47,0,0,0-1.31.26,10.19,10.19,0,0,0-1.41.58,8.78,8.78,0,0,0-1.19.75,6.85,6.85,0,0,0-1,.91,8.3,8.3,0,0,0-.88,1.08,7.75,7.75,0,0,0-.66,1.28,11.74,11.74,0,0,0-.67,2.54,8.42,8.42,0,0,0-.12,1.42,8.9,8.9,0,0,0,.14,1.45,6.27,6.27,0,0,0,.89,2.48,7.79,7.79,0,0,0,.81,1,10.07,10.07,0,0,0,1,.85,9.55,9.55,0,0,0,2.27,1.32,8.48,8.48,0,0,0,2.71.62h0c.26,0,.5,0,.75,0a7.43,7.43,0,0,0,2.79-.56,8.83,8.83,0,0,0,1.26-.65,6.76,6.76,0,0,0,.61-.44c.2-.16.4-.32.59-.49h0a7.86,7.86,0,0,0,.93-1,10.11,10.11,0,0,0,.73-1.11c.21-.38.4-.76.57-1.15a8.85,8.85,0,0,0,.45-1.15,9.72,9.72,0,0,0,.3-1.21q.1-.63.15-1.26a7.5,7.5,0,0,0,0-1.34,11.66,11.66,0,0,0-.14-1.17,6.74,6.74,0,0,0-.83-2.31,6.44,6.44,0,0,0-.82-1.12,6,6,0,0,0-1.15-.91,6.53,6.53,0,0,0-2.67-.91c-.22,0-.45,0-.67,0a5,5,0,0,0-.67,0l-.43,0c.12-.23.25-.46.38-.68h0c.2-.35.42-.7.66-1l.67-.92a27.33,27.33,0,0,1,2.16-2.52l0,0c.34-.36.69-.7,1-1s.75-.68,1.15-1h0l.08-.07c.29-.23.58-.45.88-.66s.58-.38.87-.56.74-.43,1.12-.62.8-.4,1.21-.58l.05,0c.39-.17.79-.33,1.19-.48s.73-.25,1.11-.36l.06,0h0a15.84,15.84,0,0,1,1.66-.36,18,18,0,0,1,2.31-.2,14.17,14.17,0,0,1,1.6.07h0l.24,0,.46,0a1.63,1.63,0,0,0,.38,0,1.2,1.2,0,0,0,.53-.26l.11-.08.1-.12a1.32,1.32,0,0,0,.19-.29A.72.72,0,0,0,151.8,80.43ZM129.05,94.86s0,0,0,0a.07.07,0,0,1,0,.05.36.36,0,0,1,0,.09.67.67,0,0,1-.07.11.88.88,0,0,1-.12.15,2.9,2.9,0,0,1-.36.34l-.9.7-.9.65c-.34.26-.65.54-1,.83-.15.15-.3.31-.44.48l-.34.45a9.1,9.1,0,0,0-.71,1.11l0,.11s0-.09,0-.12,0,0,0-.08a8.11,8.11,0,0,1,.3-1.07l.15-.38.18-.34a9.74,9.74,0,0,1,.6-1,6.62,6.62,0,0,1,.59-.7,8,8,0,0,1,.85-.8s0,0,0,0h0c.14-.11.27-.22.42-.32l.07,0a4.82,4.82,0,0,1,.5-.27l.39-.15.19,0,.23,0h.08l.07,0,.13,0H129s0,0,0,0h0a0,0,0,0,1,0,0h0s0,0,0,0h0ZM150.34,80.1h0Zm.58.86h0Z" fill="#bd7b87"/><path d="M143.83,165.76c0-.47,0-.93-.07-1.39-.08-1-.22-1.91-.38-2.86-.08-.46-.17-.93-.27-1.39s-.2-.89-.31-1.34-.25-1-.38-1.47-.24-.89-.37-1.33-.29-.84-.42-1.25-.25-.76-.39-1.13-.16-.46-.25-.68a4.25,4.25,0,0,0-.21-.49,1.78,1.78,0,0,0-.17-.3,1.08,1.08,0,0,0-.24-.28.65.65,0,0,0-.37-.16.58.58,0,0,0-.42.14,1.34,1.34,0,0,0-.27.26,4.07,4.07,0,0,0-.33.48c-.12.18-.22.38-.33.58s-.2.4-.29.6-.18.44-.28.65-.19.46-.28.7c-.16.4-.31.8-.46,1.2-.34.92-.69,1.83-1,2.76-.13.44-.28.86-.39,1.29s-.22.83-.32,1.25-.19,1-.27,1.42-.13.82-.18,1.23a13.55,13.55,0,0,0-.11,1.43c0,.43,0,.87,0,1.3a9,9,0,0,0,.16,1.37,8.69,8.69,0,0,0,.3,1.22,8.42,8.42,0,0,0,.76,1.74h0a4,4,0,0,0,.56.74c.1.1.21.19.32.28a1.78,1.78,0,0,0,.31.23,2.75,2.75,0,0,0,.49.23,1.94,1.94,0,0,0,.33.07,3,3,0,0,0,.6.11H139a3.75,3.75,0,0,0,2.45-.93A5.71,5.71,0,0,0,143,170.2a7.42,7.42,0,0,0,.52-1.43,8.48,8.48,0,0,0,.27-1.49C143.83,166.78,143.83,166.26,143.83,165.76Zm-4.05,4.73v0h0l0,0s0,0-.05.06l-.1.09,0,0h0l-.07,0-.06,0h-.1l-.16,0-.19-.06-.1,0h0l-.17-.12a1.79,1.79,0,0,1-.25-.22,4.51,4.51,0,0,1-.47-.51l0,0a3.29,3.29,0,0,1-.23-.33l0,0c-.1-.17-.19-.36-.28-.54a8,8,0,0,1-.27-.78c-.08-.31-.15-.62-.2-.94a10.19,10.19,0,0,1-.09-1.1,13.4,13.4,0,0,1,.12-1.67,8.67,8.67,0,0,1,.13-.89c0-.28.12-.56.19-.84,0-.12.06-.24.1-.37q0,.38,0,.75a16.65,16.65,0,0,0,.2,1.73,10.27,10.27,0,0,0,.37,1.45c.15.46.33.92.52,1.37s.38.79.58,1.18.34.65.49,1h0a0,0,0,0,0,0,0h0a2.5,2.5,0,0,1,.16.43,1.49,1.49,0,0,1,0,.18.41.41,0,0,1,0,.11A0,0,0,0,1,139.78,170.49Z" fill="#bd7b87"/><path d="M156.56,150.91h0l0,0Z" fill="#bd7b87"/><path d="M156.58,151l0,0h0S156.57,150.94,156.58,151Z" fill="#bd7b87"/><path d="M164.94,143.42a7.08,7.08,0,0,0-.47-1.41,4.45,4.45,0,0,0-.85-1.29,4.32,4.32,0,0,0-.66-.54,3.52,3.52,0,0,0-.78-.38,6.47,6.47,0,0,0-.73-.18,3.9,3.9,0,0,0-.76,0,4.59,4.59,0,0,0-1.45.39,3.23,3.23,0,0,0-.64.33,3.51,3.51,0,0,0-.6.48,9.14,9.14,0,0,0-1.57,2.24,6.29,6.29,0,0,0-.32.7c-.09.25-.17.49-.25.74a7.63,7.63,0,0,0-.31,1.4,10.81,10.81,0,0,0-.09,1.39,6.85,6.85,0,0,0,.12,1.35c0,.24.1.48.16.71s.16.42.24.63a4.16,4.16,0,0,0,.25.52,3.61,3.61,0,0,0,.33.44h0a3.88,3.88,0,0,0,.73.67,3.49,3.49,0,0,0,.86.44,3.68,3.68,0,0,0,.57.15,2.52,2.52,0,0,0,.48.06h.14a2.65,2.65,0,0,0,.74-.06,2.33,2.33,0,0,0,.36-.08,3.58,3.58,0,0,0,.55-.19,2.84,2.84,0,0,0,.61-.35l.32-.23,0,0a6.32,6.32,0,0,0,1.07-.93,9.48,9.48,0,0,0,.95-1.22,5.62,5.62,0,0,0,.69-1.36,7.2,7.2,0,0,0,.32-1.39A8.89,8.89,0,0,0,164.94,143.42Zm-5.19,5.91s0,.06,0,.1a.08.08,0,0,0,0,0s0,.07-.05.1,0,0,0,0l-.05.06,0,0h0l-.09,0h-.16a.22.22,0,0,1-.08,0h-.09a.05.05,0,0,1,0,0l-.06,0-.11-.07-.17-.15a.62.62,0,0,1-.14-.14l-.16-.23a3.72,3.72,0,0,1-.19-.34h0a4.6,4.6,0,0,1-.19-.52,6.34,6.34,0,0,1-.18-.78h0v0a9.52,9.52,0,0,1-.11-1.06,7.3,7.3,0,0,1,0-.81h0v0c0-.23.06-.46.1-.69a5.67,5.67,0,0,0,.1.72,4.79,4.79,0,0,0,.21.74c.08.21.18.43.28.64a4.59,4.59,0,0,0,.26.49,5.78,5.78,0,0,0,.33.48l.27.4a4,4,0,0,1,.23.34,1.27,1.27,0,0,1,.12.23.33.33,0,0,1,.05.12l0,.11a.37.37,0,0,1,0,.11Z" fill="#bd7b87"/><text transform="translate(41.73 96.01) rotate(-65.1)" font-size="20.92" fill="#fff" font-family="MyriadPro-Regular, Myriad Pro">C</text><text transform="translate(51.83 76.76) rotate(-51.53)" font-size="20.92" fill="#fff" font-family="MyriadPro-Regular, Myriad Pro">H</text><text transform="translate(67.3 59.36) rotate(-38.55)" font-size="20.92" fill="#fff" font-family="MyriadPro-Regular, Myriad Pro">E</text><text transform="translate(83.51 47.7) rotate(-26.21)" font-size="20.92" fill="#fff" font-family="MyriadPro-Regular, Myriad Pro">R</text><text transform="translate(102.72 39.44) rotate(-13.49)" font-size="20.92" fill="#fff" font-family="MyriadPro-Regular, Myriad Pro">R</text><text transform="translate(123.07 35.62) rotate(-1)" font-size="20.92" fill="#fff" font-family="MyriadPro-Regular, Myriad Pro">Y</text><text transform="matrix(0.98, 0.2, -0.2, 0.98, 143.31, 36.18)" font-size="20.92" fill="#fff" font-family="MyriadPro-Regular, Myriad Pro">C</text><text transform="translate(164.45 41.56) rotate(24.85)" font-size="20.92" fill="#fff" font-family="MyriadPro-Regular, Myriad Pro">A</text><text transform="translate(184.27 52.06) rotate(37.96)" font-size="20.92" fill="#fff" font-family="MyriadPro-Regular, Myriad Pro">K</text><text transform="matrix(0.64, 0.77, -0.77, 0.64, 200.16, 65.84)" font-size="20.92" fill="#fff" font-family="MyriadPro-Regular, Myriad Pro">E</text><path d="M239.92,130.42a6.28,6.28,0,1,1-6.27-6.27A6.27,6.27,0,0,1,239.92,130.42Z" fill="#fff"/><circle cx="26.68" cy="130.42" r="6.27" fill="#fff"/><text transform="translate(24.03 155.99) rotate(74.64)" font-size="14.25" fill="#fff" font-family="MyriadPro-Regular, Myriad Pro">T</text><text transform="translate(28.55 170.38) rotate(66.52)" font-size="14.25" fill="#fff" font-family="MyriadPro-Regular, Myriad Pro">R</text><text transform="translate(35.35 184.61) rotate(57.94)" font-size="14.25" fill="#fff" font-family="MyriadPro-Regular, Myriad Pro">A</text><text transform="translate(44.76 198.5) rotate(49.04)" font-size="14.25" fill="#fff" font-family="MyriadPro-Regular, Myriad Pro">D</text><text transform="translate(56.69 211.16) rotate(41.55)" font-size="14.25" fill="#fff" font-family="MyriadPro-Regular, Myriad Pro">I</text><text transform="translate(65.38 218.37) rotate(34.63)" font-size="14.25" fill="#fff" font-family="MyriadPro-Regular, Myriad Pro">T</text><text transform="matrix(0.89, 0.47, -0.47, 0.89, 77.99, 226.37)" font-size="14.25" fill="#fff" font-family="MyriadPro-Regular, Myriad Pro">I</text><text transform="translate(88.17 231.36) rotate(20.06)" font-size="14.25" fill="#fff" font-family="MyriadPro-Regular, Myriad Pro">O</text><text transform="matrix(0.98, 0.19, -0.19, 0.98, 105.24, 236.87)" font-size="14.25" fill="#fff" font-family="MyriadPro-Regular, Myriad Pro">N</text><text transform="translate(122.49 239.5) rotate(1.87)" font-size="14.25" fill="#fff" font-family="MyriadPro-Regular, Myriad Pro">A</text><text transform="translate(139.21 239.4) rotate(-6.34)" font-size="14.25" fill="#fff" font-family="MyriadPro-Regular, Myriad Pro">L</text><text transform="matrix(0.97, -0.23, 0.23, 0.97, 153.6, 237.24)" font-size="14.25" fill="#fff" font-family="MyriadPro-Regular, Myriad Pro"> </text><text transform="matrix(0.94, -0.34, 0.34, 0.94, 164.12, 234.46)" font-size="14.25" fill="#fff" font-family="MyriadPro-Regular, Myriad Pro">B</text><text transform="translate(178.75 228.54) rotate(-28.58)" font-size="14.25" fill="#fff" font-family="MyriadPro-Regular, Myriad Pro">A</text><text transform="translate(193.12 219.99) rotate(-37.06)" font-size="14.25" fill="#fff" font-family="MyriadPro-Regular, Myriad Pro">K</text><text transform="matrix(0.71, -0.71, 0.71, 0.71, 205.29, 210.08)" font-size="14.25" fill="#fff" font-family="MyriadPro-Regular, Myriad Pro">E</text><text transform="translate(215.51 199.1) rotate(-53.05)" font-size="14.25" fill="#fff" font-family="MyriadPro-Regular, Myriad Pro">R</text><text transform="matrix(0.48, -0.88, 0.88, 0.48, 224.38, 186.37)" font-size="14.25" fill="#fff" font-family="MyriadPro-Regular, Myriad Pro">Y</text><circle cx="130.42" cy="130.42" r="79.37" fill="none" stroke="#bd7b87" stroke-miterlimit="10" stroke-width="4.83"/><circle cx="130.42" cy="130.42" r="128" fill="none" stroke="#bd7b87" stroke-miterlimit="10" stroke-width="4.83"/></svg>