<svg id="Capa_1" data-name="Capa 1" xmlns="http://www.w3.org/2000/svg" viewBox="0 0 31.5 32.75"><title>calendar</title><path d="M22.17,27H9.64a7.91,7.91,0,0,1,1.3-3.5A17.89,17.89,0,0,1,15,19.59a12.38,12.38,0,0,0,2.35-2.07,2.32,2.32,0,0,0,.51-1.34A1.58,1.58,0,0,0,17.39,15a1.94,1.94,0,0,0-2.58,0,3,3,0,0,0-.68,1.77l-4.19-.33a6.72,6.72,0,0,1,.91-2.76,4.18,4.18,0,0,1,1.85-1.52,8.4,8.4,0,0,1,3.3-.52,9.2,9.2,0,0,1,3.43.5,4.16,4.16,0,0,1,1.93,1.54,4.07,4.07,0,0,1,.7,2.33,4.74,4.74,0,0,1-.8,2.63,11.12,11.12,0,0,1-2.93,2.75c-.84.58-1.4,1-1.68,1.22s-.62.54-1,.91h6.52Z" fill="#a63e51"/><path d="M11.33,6.47a1,1,0,0,0,.23-.42,3.16,3.16,0,0,0,.08-.78,3,3,0,0,0-.08-.77.87.87,0,0,0-.25-.41.9.9,0,0,0-.4-.21,4.83,4.83,0,0,0-.71,0H9.81V6.69h.64a3,3,0,0,0,.53,0A.89.89,0,0,0,11.33,6.47Z" fill="#a63e51"/><path d="M14,6.19a.33.33,0,0,0-.16.29.37.37,0,0,0,.13.29.41.41,0,0,0,.32.13.72.72,0,0,0,.43-.15A.47.47,0,0,0,15,6.48a1.2,1.2,0,0,0,0-.4V5.92l-.5.12A1.41,1.41,0,0,0,14,6.19Z" fill="#a63e51"/><path d="M28.75,1.25H27.63A.94.94,0,0,0,27.69,1a1,1,0,0,0-1.93,0,.88.88,0,0,0,.06.29H22.14A.94.94,0,0,0,22.2,1a1,1,0,0,0-1.92,0,.68.68,0,0,0,.06.29H16.65A.94.94,0,0,0,16.71,1a1,1,0,0,0-1.92,0,.88.88,0,0,0,.06.29H11.17A.94.94,0,0,0,11.23,1,1,1,0,0,0,9.3,1a.88.88,0,0,0,.06.29H5.68A.94.94,0,0,0,5.74,1,1,1,0,0,0,3.82,1a.68.68,0,0,0,.06.29H2.75A2.75,2.75,0,0,0,0,4V30a2.75,2.75,0,0,0,2.75,2.75h22.9L31.5,26.9V4A2.75,2.75,0,0,0,28.75,1.25ZM21.68,6.39a.72.72,0,0,0-.28-.1,4.24,4.24,0,0,1-1.26-.41.78.78,0,0,1-.37-.7.85.85,0,0,1,.32-.68,1.5,1.5,0,0,1,1-.27,1.74,1.74,0,0,1,1,.21,1,1,0,0,1,.42.61l-.77.15a.44.44,0,0,0-.19-.28.66.66,0,0,0-.4-.1.88.88,0,0,0-.46.09.19.19,0,0,0-.1.17.19.19,0,0,0,.08.15,3.69,3.69,0,0,0,.77.23,2.19,2.19,0,0,1,.92.37.76.76,0,0,1,.26.61.93.93,0,0,1-.36.73,1.55,1.55,0,0,1-1.05.31,1.75,1.75,0,0,1-1-.26,1.18,1.18,0,0,1-.49-.7l.83-.12a.64.64,0,0,0,.21.36.76.76,0,0,0,.46.13.81.81,0,0,0,.48-.12.27.27,0,0,0,.1-.22A.28.28,0,0,0,21.68,6.39ZM17.09,4.3l.75,2.21.72-2.21h.86l-1.1,3-.2.55a1.7,1.7,0,0,1-.21.41.81.81,0,0,1-.22.23.94.94,0,0,1-.32.14,1.34,1.34,0,0,1-.42.05,1.8,1.8,0,0,1-.46-.05L16.42,8a2.23,2.23,0,0,0,.34,0,.52.52,0,0,0,.43-.17,1.23,1.23,0,0,0,.21-.43L16.22,4.3ZM14.87,5a.91.91,0,0,0-.79,0,.61.61,0,0,0-.19.31l-.75-.14a1.13,1.13,0,0,1,.43-.66,1.56,1.56,0,0,1,.92-.22,1.94,1.94,0,0,1,.82.13.9.9,0,0,1,.38.33,1.75,1.75,0,0,1,.11.74v1a3,3,0,0,0,0,.6,1.59,1.59,0,0,0,.14.42h-.81s-.05-.14-.08-.24a.41.41,0,0,0,0-.1,1.45,1.45,0,0,1-.45.31,1.25,1.25,0,0,1-.51.1,1.09,1.09,0,0,1-.76-.26.87.87,0,0,1-.28-.66.92.92,0,0,1,.13-.47.84.84,0,0,1,.35-.32,3.19,3.19,0,0,1,.66-.19,4.72,4.72,0,0,0,.8-.2V5.3A.43.43,0,0,0,14.87,5ZM8.94,3.12h1.58a2.92,2.92,0,0,1,.82.08,1.4,1.4,0,0,1,.65.39,1.8,1.8,0,0,1,.41.7,3.24,3.24,0,0,1,.14,1,2.8,2.8,0,0,1-.13.92A2,2,0,0,1,12,7a1.55,1.55,0,0,1-.61.34,2.66,2.66,0,0,1-.77.09H8.94ZM30,26.27l-.31.31H27.33a2,2,0,0,0-2,2v2.36l-.31.31H2.75A1.25,1.25,0,0,1,1.5,30V9H30Z" fill="#a63e51"/></svg>