<svg id="Capa_1" data-name="Capa 1" xmlns="http://www.w3.org/2000/svg" viewBox="0 0 488 322.6"><title>delivery</title><path d="M86.06,162c-.55-.15-1.11-.23-1.65-.41a39.83,39.83,0,0,1-10.25,4.13l7.31,48.95A12.57,12.57,0,0,0,94,225.41h1.6l-9.37-63.35Z" fill="#a63e51"/><path d="M125.69,176.09a82.31,82.31,0,0,1-12.37-3.7h0v53h14.84V176.59c-.4-.08-.81-.13-1.21-.22Z" fill="#a63e51"/><path d="M143.42,225.4l1.44,0a12.57,12.57,0,0,0,12.61-10.77l5.62-38.71-12.57,1.74Z" fill="#a63e51"/><path d="M469.8,216.1V163.7a35.81,35.81,0,0,0-35.9-35.9l-24.8-3.9-42.5-64c-.6-.5-1.1-1.7-1.7-2.2a36.62,36.62,0,0,0-29.3-14.9H255V20.5C255,9.2,246.6,0,236.2,0H18.8C8.4,0,0,9.2,0,20.5v242a20.36,20.36,0,0,0,20.4,20.4H49.7a54.57,54.57,0,0,0,53,39.7,55.28,55.28,0,0,0,53-39.7H336.2a54.57,54.57,0,0,0,53,39.7,55.28,55.28,0,0,0,53-39.7h25.4A20.36,20.36,0,0,0,488,262.5V236.6A20.84,20.84,0,0,0,469.8,216.1ZM102.7,295a27.65,27.65,0,0,1-27.6-27.6c0-14.9,12.7-27.6,27.6-27.6a27.6,27.6,0,1,1,0,55.2Zm81.76-122.54-.06,0-6.29,40.26a26.5,26.5,0,0,1-23.64,22.31,25.27,25.27,0,0,1-2.76.25H87.3a25.27,25.27,0,0,1-2.76-.25,26.49,26.49,0,0,1-23.63-22.32l-7.49-47.38a40.38,40.38,0,0,1-8.29-73.79c1.19-17,13.24-31.2,29.73-36.81,1.19-16.25,13.9-29.41,30.21-31.9a44.86,44.86,0,0,0-2.55,15.93,20,20,0,0,0-12.9,18.45,19.07,19.07,0,0,0,2.86,9.91c-.68,0-1.36-.09-2.06-.09-16.87,0-30.55,12.21-30.55,27.28a24.68,24.68,0,0,0,1.11,7.2,25.47,25.47,0,0,0,3.58,50.62,24.77,24.77,0,0,0,18.27-8.08,19.22,19.22,0,0,0,20.7,2.5c4,9.8,22.79,17.21,45.41,17.21,25.53,0,46.23-9.45,46.23-21.09,0-5.66-4.92-10.78-12.86-14.58a24.79,24.79,0,0,0,5.59-15.61,24.42,24.42,0,0,0-2.59-10.91l10.15-5.82,2.75-1.58a39.3,39.3,0,0,1,3,29c7.37,7.18,8.75,14.79,8.75,19.49C210,155.52,200.23,166.17,184.46,172.46Zm18.37-98c-.47.28-16.56,9.51-30.66,17.6a40.93,40.93,0,0,0-12.26-8.44,99.42,99.42,0,0,0-24.52-6.8c-7-12.12-13.81-23.79-14-24.2a29.88,29.88,0,0,1,51.7-30,29.88,29.88,0,0,1,29.78,51.82Zm90,51.48v.1a2.58,2.58,0,0,1-2.6-2.6V72.7a2.58,2.58,0,0,1,2.6-2.6h43.8a2.36,2.36,0,0,1,2.1,1.1l34.1,50.7a2.59,2.59,0,0,1-2.1,4ZM389.2,295a27.65,27.65,0,0,1-27.6-27.6c0-14.9,12.7-27.6,27.6-27.6a27.65,27.65,0,0,1,27.6,27.6C416.8,282.3,404.1,295,389.2,295Z" fill="#a63e51"/></svg>