<?xml version="1.0" encoding="utf-8"?>
<!-- Generator: Adobe Illustrator 23.1.0, SVG Export Plug-In . SVG Version: 6.00 Build 0)  -->
<svg version="1.1" id="Layer_1" xmlns="http://www.w3.org/2000/svg" xmlns:xlink="http://www.w3.org/1999/xlink" x="0px" y="0px"
	 viewBox="0 0 146.5 146.5" style="enable-background:new 0 0 146.5 146.5;" xml:space="preserve">
<style type="text/css">
	.st0{fill:#102195;}
	.st1{filter:url(#Adobe_OpacityMaskFilter);}
	.st2{filter:url(#Adobe_OpacityMaskFilter_1_);}
	.st3{mask:url(#SVGID_1_);fill:url(#SVGID_2_);}
	.st4{opacity:0.8;fill:url(#SVGID_3_);}
	.st5{fill:#FFFFFF;}
</style>
<path class="st0" d="M146.5,73.3c0,40.5-32.8,73.3-73.3,73.3C32.8,146.5,0,113.7,0,73.3C0,32.8,32.8,0,73.3,0
	C113.7,0,146.5,32.8,146.5,73.3z"/>
<defs>
	<filter id="Adobe_OpacityMaskFilter" filterUnits="userSpaceOnUse" x="7" y="7.2" width="77.2" height="123.6">
		<feFlood  style="flood-color:white;flood-opacity:1" result="back"/>
		<feBlend  in="SourceGraphic" in2="back" mode="normal"/>
	</filter>
</defs>
<mask maskUnits="userSpaceOnUse" x="7" y="7.2" width="77.2" height="123.6" id="SVGID_1_">
	<g class="st1">
		<defs>
			<filter id="Adobe_OpacityMaskFilter_1_" filterUnits="userSpaceOnUse" x="7" y="7.2" width="77.2" height="123.6">
				<feFlood  style="flood-color:white;flood-opacity:1" result="back"/>
				<feBlend  in="SourceGraphic" in2="back" mode="normal"/>
			</filter>
		</defs>
		<mask maskUnits="userSpaceOnUse" x="7" y="7.2" width="77.2" height="123.6" id="SVGID_1_">
			<g class="st2">
			</g>
		</mask>
		
			<radialGradient id="SVGID_2_" cx="277.8" cy="-540.7177" r="90.0679" gradientTransform="matrix(0.1589 -0.9873 0.9873 0.1589 481.4186 421.9166)" gradientUnits="userSpaceOnUse">
			<stop  offset="0" style="stop-color:#FFFFFF"/>
			<stop  offset="1" style="stop-color:#808080"/>
		</radialGradient>
		<path class="st3" d="M64.4,7.4c20.6,3.3,22.3,37.8,17.8,66c-4.5,28.2-17,60.4-37.6,57.1C24,127.2,3.1,89.7,7.6,61.4
			C12.2,33.2,43.8,4.1,64.4,7.4z"/>
	</g>
</mask>
<radialGradient id="SVGID_3_" cx="277.8" cy="-540.7177" r="90.0679" gradientTransform="matrix(0.1589 -0.9873 0.9873 0.1589 481.4186 421.9166)" gradientUnits="userSpaceOnUse">
	<stop  offset="0" style="stop-color:#FFFFFF"/>
	<stop  offset="1" style="stop-color:#F1F2F2"/>
</radialGradient>
<path class="st4" d="M64.4,7.4c20.6,3.3,22.3,37.8,17.8,66c-4.5,28.2-17,60.4-37.6,57.1C24,127.2,3.1,89.7,7.6,61.4
	C12.2,33.2,43.8,4.1,64.4,7.4z"/>
<path class="st5" d="M60.3,117.8V68.7h-9.1V53.8h9.1v-3.7c0-5.4,0.6-9.4,1.7-12.1c1.2-2.8,3.4-5,6.6-6.8c3.1-1.7,7.1-2.5,11.8-2.5
	c4.8,0,9.5,0.7,14,2.2l0.8,0.3l-2.6,13.4l-1-0.2c-2.5-0.6-5-0.9-7.3-0.9c-2.1,0-3.5,0.5-4.4,1.3c-0.9,1-1.3,2.9-1.3,5.7v3.4H91v14.9
	H78.7v49.1H60.3z"/>
</svg>
