<svg id="Capa_1" data-name="Capa 1" xmlns="http://www.w3.org/2000/svg" viewBox="0 0 39.04 46"><title>muffin</title><path d="M36,21.18a7.86,7.86,0,0,0-.92-3.7l-.55.31L32.48,19A5,5,0,0,1,33,21.18a5.05,5.05,0,0,1-1.13,3.15c1.6.77,2.6,1.81,2.6,3,0,2.35-4.19,4.26-9.35,4.26-4.57,0-8.37-1.5-9.18-3.48a3.86,3.86,0,0,1-1.69.4,4,4,0,0,1-2.49-.9,5,5,0,0,1-3.7,1.63A5.15,5.15,0,0,1,7.34,19a5.06,5.06,0,0,1-.22-1.46c0-3,2.76-5.51,6.17-5.51l.42,0a3.86,3.86,0,0,1-.58-2,4.05,4.05,0,0,1,2.61-3.73,9,9,0,0,1,.51-3.22,7.15,7.15,0,0,0-6.1,6.45,8.65,8.65,0,0,0-6,7.44A8.16,8.16,0,0,0,5.81,31.86l1.52,9.58A5.35,5.35,0,0,0,12.1,46a5.29,5.29,0,0,0,.56,0h13a5.29,5.29,0,0,0,.56,0A5.37,5.37,0,0,0,31,41.44l1.27-8.14h0c3.19-1.27,5.17-3.43,5.17-6a5.43,5.43,0,0,0-1.77-3.94A7.82,7.82,0,0,0,36,21.18ZM11.48,41.83,10,31.94a8.26,8.26,0,0,0,2.07-.84l.33.09h0L14.34,44H14A2.54,2.54,0,0,1,11.48,41.83ZM17.92,44h0V33.28h0a16,16,0,0,0,2.5.75l.25.06.25,0V44ZM24,44l1.43-9.65L28,34h0l-1.13,7.83A2.54,2.54,0,0,1,24.3,44Z" fill="#a63e51"/><path d="M22.38,14a20.71,20.71,0,0,1,5,1.38A8.25,8.25,0,0,1,29.82,17L36,13.48A6,6,0,0,0,30,3,6,6,0,0,0,19.54,9.06Z" fill="#a63e51"/></svg>