<svg id="Capa_1" data-name="Capa 1" xmlns="http://www.w3.org/2000/svg" viewBox="0 0 472.48 468.1"><title>point</title><path d="M462.65,463.79a27.6,27.6,0,0,0,6.3-34.6L406.45,318c-5.9-10.5-22-17.5-40.2-17.7-22.5,31.5-54.1,67.1-98.4,103.9a49.52,49.52,0,0,1-31.5,11.4,49,49,0,0,1-31.5-11.4c-44.3-36.8-75.9-72.4-98.4-103.9-18.2.2-34.4,7.2-40.2,17.7L3.55,429.19a27.48,27.48,0,0,0,6.3,34.6h0a27.68,27.68,0,0,0,17.8,6.5H445a27.61,27.61,0,0,0,17.7-6.5Z" transform="translate(0 -2.19)" fill="#a63e51"/><path d="M236.25,97.19a57.15,57.15,0,0,0-57.1,57.1,13.7,13.7,0,0,0,27.4,0,29.87,29.87,0,0,1,29.8-29.8,13.65,13.65,0,1,0-.1-27.3Z" transform="translate(0 -2.19)" fill="#a63e51"/><path d="M386.65,152.59A150.38,150.38,0,0,0,230.85,2.29C156,4.89,93.65,63.39,86.55,138a154.78,154.78,0,0,0,2,43.2h0s.3,1.6,1,4.7a149.39,149.39,0,0,0,10.1,29.8c15.1,35.8,50,95.6,128.2,160.6a13.12,13.12,0,0,0,16.7,0c78.2-65,113.1-124.7,128.2-160.6a145.31,145.31,0,0,0,10.1-29.8c.7-3.1,1-4.7,1-4.7h0A143,143,0,0,0,386.65,152.59Zm-150.4,93.2a91.5,91.5,0,1,1,91.5-91.5A91.54,91.54,0,0,1,236.25,245.79Z" transform="translate(0 -2.19)" fill="#a63e51"/></svg>