<svg id="Layer_1" data-name="Layer 1" xmlns="http://www.w3.org/2000/svg" viewBox="0 0 1165 69.3"><title>stroke</title><path d="M1165,51.48V69.3H0V51.48c60.64,0,108.72-23.8,148.09-27.94q45.57-4.8,91.35-8.55c18.95-1.54,38.05-2.17,57.09-3q35.09-1.56,70.18-2.81c13.6-.49,27.22-.82,40.84-1.06s27.3-.33,40.95-.33c6.21,0,12.43.42,18.65.64V8l-27-2,.14-1.34,44.23,1.48,0-.51-56-3.71.12-1c39.56.08,79,1.77,118.12,6.15,0,.4-.05.8-.07,1.19L499.47,6.93l0,.31,24.21,1.7c0,.23-.07.46-.1.68H487.62l112.26,7.67,0-.3-6.06-1.53.24-1,7.8.32.06-.31L561.79,9.17l.32-1.36c11.3,1.22,22.72,2,33.88,3.77,12.22,1.9,24.19,4.7,36.31,7,23.35,4.48,46.73,8.87,70.09,13.34,25.34,4.86,50.42,10.7,76.06,14.38a681,681,0,0,0,70.71,6.09c19.16.72,38.51-.71,57.73-1.67,22.16-1.1,73.79-15.67,112.79-15.67S1135.12,51.48,1165,51.48Zm-909.39-21,.11.92c11.07,0,22.21.55,33.22-.13,17.78-1.09,35.32-3.45,53.41-2.29,12.65.82,25.51-.26,38.28-.48,17.2-.29,34.4-.67,51.6-.81,16.09-.14,32.19,0,48.28,0l.05-1.25c-2.57-.21-5.14-.58-7.71-.6-11.13-.08-22.25-.06-33.37-.07-25.61,0-51.23-.37-76.83,0-23.23.3-46.47,1.15-69.67,2.1C280.49,28.29,268.06,29.53,255.61,30.45Zm406.95,9c55.12,13.33,111.35,21.53,169.6,20.31C774.25,59.31,718.3,49.85,662.56,39.4ZM278.19,23.3l-.21-1L229,28.45l.17.76ZM382.3,12.75V13h50.33v-.29ZM892,59.84l.1-.27H853v.27ZM326.51,16.27l0,.28,34.32-1.43,0-.5Z" fill="#ffdce2"/><path d="M359.63,3.11,421.3,4.32l.06,1.38c-95.71,1.61-191.29,4.52-286,15.9C224.14,5.46,314-2.32,405.43.61l.12,1c-7.5.26-15,.62-22.52.74-7.8.13-15.61,0-23.41,0Z" fill="#ffdce2"/><path d="M584.32,14.54,539.41,11c.08-.54.16-1.08.23-1.61l44.8,3.42Z" fill="#ffdce2"/></svg>