<?xml version="1.0" encoding="utf-8"?>
<!-- Generator: Adobe Illustrator 23.1.0, SVG Export Plug-In . SVG Version: 6.00 Build 0)  -->
<svg version="1.1" id="Layer_1" xmlns="http://www.w3.org/2000/svg" xmlns:xlink="http://www.w3.org/1999/xlink" x="0px" y="0px"
	 viewBox="0 0 146.5 146.5" style="enable-background:new 0 0 146.5 146.5;" xml:space="preserve">
<style type="text/css">
	.st0{fill:#009D1C;}
	.st1{fill-rule:evenodd;clip-rule:evenodd;fill:#FFFFFF;}
</style>
<path class="st0" d="M146.5,73.3c0,40.5-32.8,73.3-73.3,73.3S0,113.7,0,73.3C0,32.8,32.8,0,73.3,0S146.5,32.8,146.5,73.3z"/>
<path class="st1" d="M74,106.8c-4.7,0-9.3-0.9-13.6-2.8c-1.1-0.5-2.1-1-3.1-1.5c-0.5-0.3-0.9-0.5-1.4-0.8c-0.2-0.1-0.9-0.7-1.1-0.7
	c-0.5,0.2-1.1,0.3-1.6,0.5c-3.9,1.2-7.9,2.5-11.8,3.7c1.4-4.2,2.8-8.5,4.3-12.7c0.1-0.4-0.6-1.1-0.8-1.4c-0.8-1.1-1.4-2.3-2.1-3.5
	c-1.2-2.4-2.1-4.9-2.7-7.4c-1.2-5.1-1.2-10.5-0.1-15.6c1.9-8.4,6.9-15.8,13.9-20.8c7.2-5.1,16.2-7.2,25-6c8.5,1.2,16.5,5.6,22,12.2
	c5.7,6.8,8.6,15.7,8,24.6c-0.6,8.5-4.4,16.6-10.5,22.5c-6.2,6-14.4,9.5-23,9.8C74.9,106.8,74.5,106.8,74,106.8z M93.1,80.5
	c-1.4-0.6-2.8-1.3-4.1-2c-1.1-0.5-2.8-1.7-4.1-1.5c-0.9,0-1.3,1-1.8,1.6c-0.6,0.8-1.3,1.6-2,2.4c-0.5,0.6-1,1.3-1.9,1.2
	c-0.6-0.1-1.3-0.5-1.9-0.8c-4.4-1.9-8.1-5-11-8.9c-0.8-1.1-2.7-3.1-1.6-4.4c1.3-1.6,3.7-3.3,2.8-5.5c-0.6-1.4-1.1-2.8-1.7-4.2
	c-0.3-0.8-0.7-1.7-1-2.5s-0.6-1.9-1.4-2.4c-0.5-0.3-1.2-0.1-1.8-0.2c-1.2-0.1-2.3-0.1-3.3,0.6c-1.1,0.8-2.2,2.1-2.8,3.3
	C51.6,63.7,56,70.8,60,76c2.2,3,4.8,5.7,7.7,8c3.8,3.1,8.2,4.9,12.8,6.4c1.9,0.6,4.1,1.4,6.1,1c0.6-0.1,1.2-0.2,1.8-0.3
	c1.9-0.5,3.8-1.6,5.1-3c1.2-1.3,1.7-3.1,1.8-4.8c0-0.5,0.1-1.1-0.1-1.6C94.8,81.1,93.6,80.7,93.1,80.5z M115.6,71.1
	C115.1,53.8,103.4,38.3,87,33c-16.7-5.4-35.6,0.4-46.2,14.5c-5.2,6.9-8.1,15.4-8.3,24.1c-0.1,5.5,1,11,3.1,16.1
	c0.5,1.2,1,2.4,1.6,3.5c0.2,0.4,1.4,1.9,1.2,2.3c-0.2,0.5-0.3,1-0.5,1.5c-2.3,6.8-4.7,13.7-7,20.5c4.1-1.3,8.3-2.6,12.4-3.9
	c2.7-0.8,5.3-1.7,8-2.5c0.7-0.2,1.5-0.5,2.2-0.7c0.1,0,0.3-0.1,0.4-0.1s0.7,0.4,0.9,0.5c0.7,0.3,1.4,0.7,2,1
	c17.2,7.7,38.1,2.7,49.8-12c2.9-3.6,5.1-7.7,6.7-12C115,80.9,115.6,76.1,115.6,71.1z"/>
</svg>
